STARTFONT 2.1
COMMENT
COMMENT Converted from OpenType font "BeVietnam-Bold.ttf" by "otf2bdf 3.0".
COMMENT
FONT -FreeType-Be Vietnam-Bold-R-Normal--19-140-100-100-P-97-ISO10646-1
SIZE 14 100 100
FONTBOUNDINGBOX 31 27 -9 -5
STARTPROPERTIES 19
FOUNDRY "FreeType"
FAMILY_NAME "Be Vietnam"
WEIGHT_NAME "Bold"
SLANT "R"
SETWIDTH_NAME "Normal"
ADD_STYLE_NAME ""
PIXEL_SIZE 19
POINT_SIZE 140
RESOLUTION_X 100
RESOLUTION_Y 100
SPACING "P"
AVERAGE_WIDTH 97
CHARSET_REGISTRY "ISO10646"
CHARSET_ENCODING "1"
FONT_ASCENT 22
FONT_DESCENT 5
COPYRIGHT "Copyright 2019 The Bevietnam Project Authors (https://github.com/bettergui/beVietnam)"
_OTF_FONTFILE "BeVietnam-Bold.ttf"
_OTF_PSNAME "BeVietnam-Bold"
ENDPROPERTIES
CHARS 445
STARTCHAR 000D
ENCODING 13
SWIDTH 565 0
DWIDTH 11 0
BBX 0 0 0 0
BITMAP
ENDCHAR
STARTCHAR 0020
ENCODING 32
SWIDTH 205 0
DWIDTH 4 0
BBX 0 0 0 0
BITMAP
ENDCHAR
STARTCHAR 0021
ENCODING 33
SWIDTH 257 0
DWIDTH 5 0
BBX 3 14 1 0
BITMAP
E0
E0
E0
E0
E0
60
60
60
60
60
00
40
E0
E0
ENDCHAR
STARTCHAR 0022
ENCODING 34
SWIDTH 514 0
DWIDTH 10 0
BBX 8 6 1 9
BITMAP
62
84
84
E7
E7
42
ENDCHAR
STARTCHAR 0023
ENCODING 35
SWIDTH 874 0
DWIDTH 17 0
BBX 14 14 2 0
BITMAP
0630
0E70
0C60
0C60
7FFC
7FFC
1CE0
18C0
18C0
FFF8
FFF0
3180
3180
3180
ENDCHAR
STARTCHAR 0024
ENCODING 36
SWIDTH 565 0
DWIDTH 11 0
BBX 10 17 1 -2
BITMAP
0800
0800
7F00
7F80
E9C0
E9C0
E800
7E00
3F80
0FC0
09C0
E9C0
F9C0
7F80
3F00
0800
0800
ENDCHAR
STARTCHAR 0025
ENCODING 37
SWIDTH 771 0
DWIDTH 15 0
BBX 14 14 1 0
BITMAP
7060
F860
D8C0
D8C0
F980
7180
0300
0700
0600
0E78
0C6C
1C4C
186C
3878
ENDCHAR
STARTCHAR 0026
ENCODING 38
SWIDTH 617 0
DWIDTH 12 0
BBX 12 14 1 0
BITMAP
1E00
3F80
7B80
71C0
7000
3800
3CE0
7DC0
FF80
C780
C380
E7C0
FEE0
7C70
ENDCHAR
STARTCHAR 0027
ENCODING 39
SWIDTH 257 0
DWIDTH 5 0
BBX 4 6 1 10
BITMAP
60
F0
70
30
20
40
ENDCHAR
STARTCHAR 0028
ENCODING 40
SWIDTH 462 0
DWIDTH 9 0
BBX 6 19 2 -3
BITMAP
18
18
30
70
60
60
E0
E0
E0
E0
E0
E0
E0
60
60
30
30
18
0C
ENDCHAR
STARTCHAR 0029
ENCODING 41
SWIDTH 514 0
DWIDTH 10 0
BBX 6 20 3 -4
BITMAP
80
C0
60
30
30
38
18
18
1C
1C
1C
1C
18
18
18
38
30
70
60
C0
ENDCHAR
STARTCHAR 002A
ENCODING 42
SWIDTH 514 0
DWIDTH 10 0
BBX 6 7 2 8
BITMAP
30
B4
FC
78
FC
B4
30
ENDCHAR
STARTCHAR 002B
ENCODING 43
SWIDTH 565 0
DWIDTH 11 0
BBX 8 8 2 2
BITMAP
18
18
18
FF
FF
18
18
18
ENDCHAR
STARTCHAR 002C
ENCODING 44
SWIDTH 308 0
DWIDTH 6 0
BBX 4 6 1 -4
BITMAP
60
F0
F0
30
30
20
ENDCHAR
STARTCHAR 002D
ENCODING 45
SWIDTH 565 0
DWIDTH 11 0
BBX 7 2 2 5
BITMAP
FE
FE
ENDCHAR
STARTCHAR 002E
ENCODING 46
SWIDTH 308 0
DWIDTH 6 0
BBX 3 3 2 0
BITMAP
C0
E0
C0
ENDCHAR
STARTCHAR 002F
ENCODING 47
SWIDTH 514 0
DWIDTH 10 0
BBX 9 19 1 -4
BITMAP
0380
0300
0700
0700
0600
0E00
0C00
0C00
1C00
1800
1800
3800
3000
7000
7000
6000
E000
E000
C000
ENDCHAR
STARTCHAR 0030
ENCODING 48
SWIDTH 617 0
DWIDTH 12 0
BBX 10 14 1 0
BITMAP
1E00
7F80
7F80
E1C0
E1C0
E1C0
E1C0
E1C0
E1C0
E1C0
E1C0
F3C0
7F80
3F00
ENDCHAR
STARTCHAR 0031
ENCODING 49
SWIDTH 514 0
DWIDTH 10 0
BBX 9 14 1 0
BITMAP
1C00
3C00
7C00
FC00
DC00
9C00
1C00
1C00
1C00
1C00
1C00
1C00
FF80
FF80
ENDCHAR
STARTCHAR 0032
ENCODING 50
SWIDTH 565 0
DWIDTH 11 0
BBX 10 14 1 0
BITMAP
1E00
7F00
7380
E180
E180
0180
0380
0700
0E00
1C00
3800
F000
FFC0
FFC0
ENDCHAR
STARTCHAR 0033
ENCODING 51
SWIDTH 565 0
DWIDTH 11 0
BBX 10 14 1 0
BITMAP
3E00
7F80
F380
E180
0180
0380
0F00
0F00
0180
01C0
E1C0
F380
7F80
3F00
ENDCHAR
STARTCHAR 0034
ENCODING 52
SWIDTH 565 0
DWIDTH 11 0
BBX 10 14 1 0
BITMAP
0700
0F00
0F00
1F00
3B00
3300
7300
E300
E300
FFC0
FFC0
0300
0300
0300
ENDCHAR
STARTCHAR 0035
ENCODING 53
SWIDTH 565 0
DWIDTH 11 0
BBX 10 14 1 0
BITMAP
7F80
FF80
FF80
E000
E000
FF00
FF80
E180
01C0
01C0
E1C0
F380
7F80
3F00
ENDCHAR
STARTCHAR 0036
ENCODING 54
SWIDTH 565 0
DWIDTH 11 0
BBX 10 14 1 0
BITMAP
0E00
1C00
1800
3800
7000
6E00
FF80
E380
E1C0
C1C0
E1C0
E380
7F80
3F00
ENDCHAR
STARTCHAR 0037
ENCODING 55
SWIDTH 514 0
DWIDTH 10 0
BBX 10 14 0 0
BITMAP
FFC0
FFC0
FFC0
0180
0380
0380
0700
0700
0E00
0E00
1C00
1C00
3800
3800
ENDCHAR
STARTCHAR 0038
ENCODING 56
SWIDTH 565 0
DWIDTH 11 0
BBX 10 14 1 0
BITMAP
1E00
7F80
7380
E1C0
E1C0
6180
7F80
7F80
E1C0
E1C0
E1C0
E1C0
7F80
3F00
ENDCHAR
STARTCHAR 0039
ENCODING 57
SWIDTH 565 0
DWIDTH 11 0
BBX 10 14 1 0
BITMAP
1E00
7F00
F380
E1C0
C1C0
E1C0
E1C0
7F80
3F80
0300
0700
0E00
0C00
1C00
ENDCHAR
STARTCHAR 003A
ENCODING 58
SWIDTH 308 0
DWIDTH 6 0
BBX 3 10 2 0
BITMAP
C0
E0
C0
00
00
00
00
C0
E0
C0
ENDCHAR
STARTCHAR 003B
ENCODING 59
SWIDTH 308 0
DWIDTH 6 0
BBX 3 13 2 -4
BITMAP
E0
E0
40
00
00
00
00
40
E0
E0
20
20
40
ENDCHAR
STARTCHAR 003C
ENCODING 60
SWIDTH 565 0
DWIDTH 11 0
BBX 7 9 2 2
BITMAP
02
0E
3E
F8
E0
F0
3C
0E
06
ENDCHAR
STARTCHAR 003D
ENCODING 61
SWIDTH 668 0
DWIDTH 13 0
BBX 9 6 2 3
BITMAP
FF80
FF80
0000
0000
FF80
FF80
ENDCHAR
STARTCHAR 003E
ENCODING 62
SWIDTH 565 0
DWIDTH 11 0
BBX 7 9 2 2
BITMAP
80
E0
F8
3E
0E
1E
7C
F0
C0
ENDCHAR
STARTCHAR 003F
ENCODING 63
SWIDTH 565 0
DWIDTH 11 0
BBX 9 14 1 0
BITMAP
1E00
7F00
FF80
E380
E180
0380
0780
0F00
0E00
1C00
0000
0800
1C00
1C00
ENDCHAR
STARTCHAR 0040
ENCODING 64
SWIDTH 977 0
DWIDTH 19 0
BBX 17 17 1 -3
BITMAP
03E000
0FFC00
1C1E00
300700
700300
63F180
677180
C63180
C63180
C63180
663980
67DF00
618E00
300000
3C0000
1FF800
07F800
ENDCHAR
STARTCHAR 0041
ENCODING 65
SWIDTH 668 0
DWIDTH 13 0
BBX 12 14 1 0
BITMAP
0E00
0E00
0F00
1F00
1B00
1B80
3980
3180
71C0
7FC0
7FC0
E0E0
E060
C070
ENDCHAR
STARTCHAR 0042
ENCODING 66
SWIDTH 617 0
DWIDTH 12 0
BBX 10 14 1 0
BITMAP
FE00
FF80
FF80
E1C0
E1C0
E180
FF00
FF80
E1C0
E0C0
E0C0
E1C0
FFC0
FF80
ENDCHAR
STARTCHAR 0043
ENCODING 67
SWIDTH 668 0
DWIDTH 13 0
BBX 12 14 1 0
BITMAP
0F00
3FC0
7FE0
70E0
E070
E000
E000
E000
E000
E070
E060
79E0
3FC0
1F80
ENDCHAR
STARTCHAR 0044
ENCODING 68
SWIDTH 668 0
DWIDTH 13 0
BBX 11 14 1 0
BITMAP
FE00
FF80
FFC0
E1E0
E0E0
E0E0
E060
E060
E060
E0E0
E0E0
E3C0
FF80
FF00
ENDCHAR
STARTCHAR 0045
ENCODING 69
SWIDTH 565 0
DWIDTH 11 0
BBX 9 14 1 0
BITMAP
FF80
FF80
FF80
E000
E000
E000
FF00
FF00
E000
E000
E000
E000
FF80
FF80
ENDCHAR
STARTCHAR 0046
ENCODING 70
SWIDTH 462 0
DWIDTH 9 0
BBX 9 14 1 0
BITMAP
FF80
FF80
FF80
E000
E000
E000
FF00
FF00
E000
E000
E000
E000
E000
E000
ENDCHAR
STARTCHAR 0047
ENCODING 71
SWIDTH 668 0
DWIDTH 13 0
BBX 12 14 1 0
BITMAP
0F00
3FC0
7FE0
70E0
E070
E000
E000
E3F0
E3F0
E070
E070
70F0
3FB0
1F30
ENDCHAR
STARTCHAR 0048
ENCODING 72
SWIDTH 668 0
DWIDTH 13 0
BBX 11 14 1 0
BITMAP
E0E0
E0E0
E0E0
E0E0
E0E0
E0E0
FFE0
FFE0
E0E0
E0E0
E0E0
E0E0
E0E0
E0E0
ENDCHAR
STARTCHAR 0049
ENCODING 73
SWIDTH 257 0
DWIDTH 5 0
BBX 3 14 1 0
BITMAP
E0
E0
E0
E0
E0
E0
E0
E0
E0
E0
E0
E0
E0
E0
ENDCHAR
STARTCHAR 004A
ENCODING 74
SWIDTH 360 0
DWIDTH 7 0
BBX 5 14 1 0
BITMAP
38
38
38
38
38
38
38
38
38
38
38
38
F8
F0
ENDCHAR
STARTCHAR 004B
ENCODING 75
SWIDTH 617 0
DWIDTH 12 0
BBX 11 14 1 0
BITMAP
E0E0
E1C0
E380
E700
EE00
FC00
FC00
FE00
FE00
E700
E380
E380
E1C0
E1C0
ENDCHAR
STARTCHAR 004C
ENCODING 76
SWIDTH 514 0
DWIDTH 10 0
BBX 9 14 1 0
BITMAP
E000
E000
E000
E000
E000
E000
E000
E000
E000
E000
E000
E000
FF80
FF80
ENDCHAR
STARTCHAR 004D
ENCODING 77
SWIDTH 822 0
DWIDTH 16 0
BBX 14 14 1 0
BITMAP
F03C
F83C
F87C
F87C
FC6C
FCEC
ECEC
EECC
EFCC
E7CC
E78C
E78C
E38C
E30C
ENDCHAR
STARTCHAR 004E
ENCODING 78
SWIDTH 668 0
DWIDTH 13 0
BBX 12 14 1 0
BITMAP
E070
F070
F070
F870
FC70
FC70
EE70
EE70
E770
E3F0
E3F0
E1F0
E1F0
E0F0
ENDCHAR
STARTCHAR 004F
ENCODING 79
SWIDTH 720 0
DWIDTH 14 0
BBX 12 14 1 0
BITMAP
0F00
3FC0
7FE0
70E0
E070
E070
E070
E070
E070
E070
F0F0
79E0
3FC0
1F80
ENDCHAR
STARTCHAR 0050
ENCODING 80
SWIDTH 565 0
DWIDTH 11 0
BBX 10 14 1 0
BITMAP
FC00
FF80
FF80
E1C0
E1C0
E1C0
E1C0
FF80
FF80
FE00
E000
E000
E000
E000
ENDCHAR
STARTCHAR 0051
ENCODING 81
SWIDTH 720 0
DWIDTH 14 0
BBX 12 15 1 -1
BITMAP
0F00
3FC0
7FE0
70E0
E070
E070
E070
E070
E070
E770
F3F0
79E0
3FC0
1FE0
0070
ENDCHAR
STARTCHAR 0052
ENCODING 82
SWIDTH 565 0
DWIDTH 11 0
BBX 10 14 1 0
BITMAP
FC00
FF80
FF80
E1C0
E1C0
E1C0
E3C0
FF80
FF00
E700
E700
E380
E180
E1C0
ENDCHAR
STARTCHAR 0053
ENCODING 83
SWIDTH 565 0
DWIDTH 11 0
BBX 10 14 1 0
BITMAP
1E00
7F80
7380
E1C0
E000
F000
7F00
3F80
03C0
01C0
E1C0
F3C0
7F80
3F00
ENDCHAR
STARTCHAR 0054
ENCODING 84
SWIDTH 565 0
DWIDTH 11 0
BBX 10 14 1 0
BITMAP
FFC0
FFC0
FFC0
1C00
1C00
1C00
1C00
1C00
1C00
1C00
1C00
1C00
1C00
1C00
ENDCHAR
STARTCHAR 0055
ENCODING 85
SWIDTH 668 0
DWIDTH 13 0
BBX 11 14 1 0
BITMAP
E060
E060
E060
E060
E060
E060
E060
E060
E060
E0E0
E0E0
79E0
7FC0
1F80
ENDCHAR
STARTCHAR 0056
ENCODING 86
SWIDTH 617 0
DWIDTH 12 0
BBX 13 14 0 0
BITMAP
E038
6030
7070
7070
3060
38E0
38E0
18C0
19C0
1DC0
1D80
0F80
0F80
0F00
ENDCHAR
STARTCHAR 0057
ENCODING 87
SWIDTH 977 0
DWIDTH 19 0
BBX 19 14 0 0
BITMAP
E0E0E0
60E0E0
60E0E0
70F0C0
71F1C0
31F1C0
31B9C0
3BB980
3B9980
1B1F80
1F1F80
1F0F00
1E0F00
0E0F00
ENDCHAR
STARTCHAR 0058
ENCODING 88
SWIDTH 668 0
DWIDTH 13 0
BBX 12 14 1 0
BITMAP
E070
E0E0
71C0
31C0
3B80
1F00
1F00
0E00
1F00
3B80
3980
71C0
60E0
E0E0
ENDCHAR
STARTCHAR 0059
ENCODING 89
SWIDTH 617 0
DWIDTH 12 0
BBX 11 14 1 0
BITMAP
C0E0
E0E0
61C0
71C0
3380
3B80
1F00
1F00
0E00
0E00
0E00
0E00
0E00
0E00
ENDCHAR
STARTCHAR 005A
ENCODING 90
SWIDTH 617 0
DWIDTH 12 0
BBX 10 14 1 0
BITMAP
FFC0
FFC0
FFC0
03C0
0380
0700
0E00
1C00
3800
3800
7000
E000
FFC0
FFC0
ENDCHAR
STARTCHAR 005B
ENCODING 91
SWIDTH 462 0
DWIDTH 9 0
BBX 6 20 2 -4
BITMAP
FC
FC
C0
C0
C0
C0
C0
C0
C0
C0
C0
C0
C0
C0
C0
C0
C0
C0
FC
FC
ENDCHAR
STARTCHAR 005C
ENCODING 92
SWIDTH 514 0
DWIDTH 10 0
BBX 9 19 1 -4
BITMAP
C000
E000
6000
6000
7000
3000
3000
3800
1800
1C00
1C00
0C00
0E00
0E00
0600
0700
0700
0300
0380
ENDCHAR
STARTCHAR 005D
ENCODING 93
SWIDTH 462 0
DWIDTH 9 0
BBX 6 20 1 -4
BITMAP
FC
FC
0C
0C
0C
0C
0C
0C
0C
0C
0C
0C
0C
0C
0C
0C
0C
0C
FC
FC
ENDCHAR
STARTCHAR 005E
ENCODING 94
SWIDTH 411 0
DWIDTH 8 0
BBX 8 4 0 11
BITMAP
3C
3C
66
E7
ENDCHAR
STARTCHAR 005F
ENCODING 95
SWIDTH 668 0
DWIDTH 13 0
BBX 10 2 2 0
BITMAP
FFC0
FFC0
ENDCHAR
STARTCHAR 0060
ENCODING 96
SWIDTH 257 0
DWIDTH 5 0
BBX 4 4 1 12
BITMAP
C0
E0
60
30
ENDCHAR
STARTCHAR 0061
ENCODING 97
SWIDTH 617 0
DWIDTH 12 0
BBX 10 11 1 0
BITMAP
1000
7DC0
FFC0
E3C0
E1C0
C1C0
C1C0
E1C0
E3C0
7FC0
3DC0
ENDCHAR
STARTCHAR 0062
ENCODING 98
SWIDTH 565 0
DWIDTH 11 0
BBX 10 15 1 0
BITMAP
E000
E000
E000
E000
E000
EF80
FF80
E1C0
E1C0
E1C0
E1C0
E1C0
F1C0
FF80
EF00
ENDCHAR
STARTCHAR 0063
ENCODING 99
SWIDTH 565 0
DWIDTH 11 0
BBX 9 11 1 0
BITMAP
0800
3F00
7F80
E380
E180
C000
C000
E180
E380
7F00
3E00
ENDCHAR
STARTCHAR 0064
ENCODING 100
SWIDTH 565 0
DWIDTH 11 0
BBX 10 15 1 0
BITMAP
01C0
01C0
01C0
01C0
01C0
7DC0
FFC0
E3C0
E1C0
E1C0
E1C0
E1C0
E3C0
7FC0
3DC0
ENDCHAR
STARTCHAR 0065
ENCODING 101
SWIDTH 565 0
DWIDTH 11 0
BBX 9 11 1 0
BITMAP
0800
3F00
7780
E180
C180
FF80
FF80
C000
E380
7F00
3E00
ENDCHAR
STARTCHAR 0066
ENCODING 102
SWIDTH 360 0
DWIDTH 7 0
BBX 6 14 1 0
BITMAP
3C
7C
70
70
FC
FC
70
70
70
70
70
70
70
70
ENDCHAR
STARTCHAR 0067
ENCODING 103
SWIDTH 565 0
DWIDTH 11 0
BBX 10 14 1 -3
BITMAP
7DC0
FFC0
E1C0
E1C0
E1C0
E1C0
E1C0
F3C0
7FC0
3DC0
01C0
0380
1F80
1F00
ENDCHAR
STARTCHAR 0068
ENCODING 104
SWIDTH 565 0
DWIDTH 11 0
BBX 10 14 1 0
BITMAP
E000
E000
E000
E000
EF80
FF80
E1C0
E1C0
E1C0
E1C0
E1C0
E1C0
E1C0
E1C0
ENDCHAR
STARTCHAR 0069
ENCODING 105
SWIDTH 257 0
DWIDTH 5 0
BBX 3 15 1 0
BITMAP
60
E0
60
00
00
E0
E0
E0
E0
E0
E0
E0
E0
E0
E0
ENDCHAR
STARTCHAR 006A
ENCODING 106
SWIDTH 257 0
DWIDTH 5 0
BBX 5 19 -1 -4
BITMAP
18
38
18
00
38
38
38
38
38
38
38
38
38
38
38
38
38
F8
F0
ENDCHAR
STARTCHAR 006B
ENCODING 107
SWIDTH 514 0
DWIDTH 10 0
BBX 9 14 1 0
BITMAP
E000
E000
E000
E000
E380
E700
EE00
FC00
F800
FC00
EE00
E700
E700
E380
ENDCHAR
STARTCHAR 006C
ENCODING 108
SWIDTH 308 0
DWIDTH 6 0
BBX 5 15 1 0
BITMAP
E0
E0
E0
E0
E0
E0
E0
E0
E0
E0
E0
E0
E0
F8
78
ENDCHAR
STARTCHAR 006D
ENCODING 109
SWIDTH 874 0
DWIDTH 17 0
BBX 16 11 1 0
BITMAP
0008
EF3E
FFFE
E3C7
E187
E187
E187
E187
E187
E187
E187
ENDCHAR
STARTCHAR 006E
ENCODING 110
SWIDTH 565 0
DWIDTH 11 0
BBX 10 10 1 1
BITMAP
EF80
FF80
E1C0
E1C0
E1C0
E1C0
E1C0
E1C0
E1C0
E1C0
ENDCHAR
STARTCHAR 006F
ENCODING 111
SWIDTH 565 0
DWIDTH 11 0
BBX 10 10 1 1
BITMAP
3F00
7F80
E380
E180
C1C0
C1C0
E180
E380
7F00
3E00
ENDCHAR
STARTCHAR 0070
ENCODING 112
SWIDTH 617 0
DWIDTH 12 0
BBX 10 14 1 -3
BITMAP
EF80
FF80
E1C0
E1C0
E1C0
E1C0
E1C0
F1C0
FF80
EF00
E000
E000
E000
E000
ENDCHAR
STARTCHAR 0071
ENCODING 113
SWIDTH 617 0
DWIDTH 12 0
BBX 10 14 1 -3
BITMAP
7FC0
7FC0
E1C0
E1C0
E1C0
E1C0
E1C0
F3C0
7FC0
3DC0
01C0
01C0
01C0
01C0
ENDCHAR
STARTCHAR 0072
ENCODING 114
SWIDTH 360 0
DWIDTH 7 0
BBX 6 10 1 0
BITMAP
EC
FC
F0
E0
E0
E0
E0
E0
E0
E0
ENDCHAR
STARTCHAR 0073
ENCODING 115
SWIDTH 462 0
DWIDTH 9 0
BBX 8 10 1 1
BITMAP
7E
EF
C7
E0
7E
1F
07
E7
FE
7C
ENDCHAR
STARTCHAR 0074
ENCODING 116
SWIDTH 411 0
DWIDTH 8 0
BBX 6 14 1 0
BITMAP
70
70
70
70
FC
FC
70
70
70
70
70
70
7C
3C
ENDCHAR
STARTCHAR 0075
ENCODING 117
SWIDTH 565 0
DWIDTH 11 0
BBX 9 10 1 0
BITMAP
E180
E180
E180
E180
E180
E180
E180
E380
7F80
7D80
ENDCHAR
STARTCHAR 0076
ENCODING 118
SWIDTH 514 0
DWIDTH 10 0
BBX 9 10 1 0
BITMAP
C180
C380
E380
6300
6700
7700
3600
3E00
3E00
1C00
ENDCHAR
STARTCHAR 0077
ENCODING 119
SWIDTH 822 0
DWIDTH 16 0
BBX 14 10 1 0
BITMAP
C30C
C78C
E79C
E79C
6FD8
6ED8
7CD8
7CF8
3CF0
3870
ENDCHAR
STARTCHAR 0078
ENCODING 120
SWIDTH 565 0
DWIDTH 11 0
BBX 9 10 1 0
BITMAP
E380
6700
7700
3E00
3C00
3E00
3600
7700
E300
E380
ENDCHAR
STARTCHAR 0079
ENCODING 121
SWIDTH 514 0
DWIDTH 10 0
BBX 9 14 1 -4
BITMAP
C180
E380
E300
6300
7700
3600
3600
3E00
1C00
1C00
1800
3800
F800
F000
ENDCHAR
STARTCHAR 007A
ENCODING 122
SWIDTH 462 0
DWIDTH 9 0
BBX 8 10 1 0
BITMAP
FF
FF
0E
0C
1C
38
70
E0
FF
FF
ENDCHAR
STARTCHAR 007B
ENCODING 123
SWIDTH 411 0
DWIDTH 8 0
BBX 7 21 1 -5
BITMAP
1E
38
30
30
30
30
30
30
30
F0
F0
30
30
30
30
30
30
30
38
1E
0E
ENDCHAR
STARTCHAR 007C
ENCODING 124
SWIDTH 257 0
DWIDTH 5 0
BBX 2 23 2 -5
BITMAP
C0
C0
C0
C0
C0
C0
C0
C0
C0
C0
C0
C0
C0
C0
C0
C0
C0
C0
C0
C0
C0
C0
C0
ENDCHAR
STARTCHAR 007D
ENCODING 125
SWIDTH 411 0
DWIDTH 8 0
BBX 6 21 2 -5
BITMAP
F0
70
30
30
30
30
30
30
30
3C
1C
30
30
30
30
30
30
30
30
F0
E0
ENDCHAR
STARTCHAR 007E
ENCODING 126
SWIDTH 565 0
DWIDTH 11 0
BBX 8 3 2 6
BITMAP
23
FE
CE
ENDCHAR
STARTCHAR 00A0
ENCODING 160
SWIDTH 205 0
DWIDTH 4 0
BBX 0 0 0 0
BITMAP
ENDCHAR
STARTCHAR 00A1
ENCODING 161
SWIDTH 257 0
DWIDTH 5 0
BBX 3 15 1 -5
BITMAP
40
E0
E0
00
00
60
60
60
60
60
E0
E0
E0
E0
E0
ENDCHAR
STARTCHAR 00A2
ENCODING 162
SWIDTH 565 0
DWIDTH 11 0
BBX 9 13 1 -1
BITMAP
0800
0800
3F00
7F80
EB80
E980
C800
C800
E980
EB80
7F00
3E00
0800
ENDCHAR
STARTCHAR 00A3
ENCODING 163
SWIDTH 617 0
DWIDTH 12 0
BBX 10 14 1 0
BITMAP
1E00
7F80
73C0
E1C0
E000
7000
7000
FF00
FF00
1800
3800
7000
FFC0
FFC0
ENDCHAR
STARTCHAR 00A4
ENCODING 164
SWIDTH 617 0
DWIDTH 12 0
BBX 10 10 1 1
BITMAP
CCC0
7FC0
7380
61C0
C0C0
C0C0
60C0
7180
7FC0
DEC0
ENDCHAR
STARTCHAR 00A5
ENCODING 165
SWIDTH 617 0
DWIDTH 12 0
BBX 11 14 1 0
BITMAP
C0E0
E0E0
61C0
71C0
3380
3B80
1F00
1F00
3F80
3F80
0E00
3F80
0E00
0E00
ENDCHAR
STARTCHAR 00A6
ENCODING 166
SWIDTH 257 0
DWIDTH 5 0
BBX 2 23 2 -5
BITMAP
C0
C0
C0
C0
C0
C0
C0
C0
C0
C0
00
00
00
C0
C0
C0
C0
C0
C0
C0
C0
C0
C0
ENDCHAR
STARTCHAR 00A7
ENCODING 167
SWIDTH 514 0
DWIDTH 10 0
BBX 9 14 1 0
BITMAP
3C00
7F00
E700
6000
7C00
FF00
C380
E380
7F80
3F00
0700
E300
7F00
3E00
ENDCHAR
STARTCHAR 00A8
ENCODING 168
SWIDTH 462 0
DWIDTH 9 0
BBX 8 3 1 12
BITMAP
C6
E7
C6
ENDCHAR
STARTCHAR 00A9
ENCODING 169
SWIDTH 771 0
DWIDTH 15 0
BBX 14 14 1 0
BITMAP
0780
1FE0
3030
6318
CFC8
D84C
980C
980C
D86C
CCCC
4798
6038
38F0
1FC0
ENDCHAR
STARTCHAR 00AA
ENCODING 170
SWIDTH 154 0
DWIDTH 3 0
BBX 3 3 0 7
BITMAP
E0
A0
60
ENDCHAR
STARTCHAR 00AB
ENCODING 171
SWIDTH 668 0
DWIDTH 13 0
BBX 11 8 1 2
BITMAP
1C60
38C0
71C0
E380
E380
71C0
38C0
1C60
ENDCHAR
STARTCHAR 00AC
ENCODING 172
SWIDTH 617 0
DWIDTH 12 0
BBX 9 5 2 5
BITMAP
FF80
FF80
0180
0180
0180
ENDCHAR
STARTCHAR 00AD
ENCODING 173
SWIDTH 565 0
DWIDTH 11 0
BBX 7 2 2 5
BITMAP
FE
FE
ENDCHAR
STARTCHAR 00AE
ENCODING 174
SWIDTH 308 0
DWIDTH 6 0
BBX 5 5 1 9
BITMAP
20
90
E8
E8
70
ENDCHAR
STARTCHAR 00AF
ENCODING 175
SWIDTH 360 0
DWIDTH 7 0
BBX 6 1 1 13
BITMAP
FC
ENDCHAR
STARTCHAR 00B0
ENCODING 176
SWIDTH 308 0
DWIDTH 6 0
BBX 4 4 1 13
BITMAP
70
90
90
70
ENDCHAR
STARTCHAR 00B1
ENCODING 177
SWIDTH 565 0
DWIDTH 11 0
BBX 8 12 2 0
BITMAP
18
18
18
FF
FF
FF
18
18
18
00
FF
FF
ENDCHAR
STARTCHAR 00B2
ENCODING 178
SWIDTH 257 0
DWIDTH 5 0
BBX 6 8 0 7
BITMAP
30
78
C8
08
30
60
FC
FC
ENDCHAR
STARTCHAR 00B3
ENCODING 179
SWIDTH 308 0
DWIDTH 6 0
BBX 6 8 0 7
BITMAP
38
6C
0C
18
0C
CC
7C
30
ENDCHAR
STARTCHAR 00B4
ENCODING 180
SWIDTH 257 0
DWIDTH 5 0
BBX 4 4 1 12
BITMAP
70
60
E0
C0
ENDCHAR
STARTCHAR 00B5
ENCODING 181
SWIDTH 617 0
DWIDTH 12 0
BBX 11 14 1 -4
BITMAP
E380
E380
E380
E380
E380
E380
E380
E380
FDE0
F9E0
E000
E000
E000
E000
ENDCHAR
STARTCHAR 00B6
ENCODING 182
SWIDTH 565 0
DWIDTH 11 0
BBX 10 14 0 0
BITMAP
1FC0
7FC0
7FC0
FEC0
FEC0
7EC0
7EC0
3EC0
06C0
06C0
06C0
06C0
06C0
06C0
ENDCHAR
STARTCHAR 00B7
ENCODING 183
SWIDTH 308 0
DWIDTH 6 0
BBX 2 2 2 7
BITMAP
C0
C0
ENDCHAR
STARTCHAR 00B8
ENCODING 184
SWIDTH 257 0
DWIDTH 5 0
BBX 3 5 1 -5
BITMAP
80
E0
20
E0
C0
ENDCHAR
STARTCHAR 00B9
ENCODING 185
SWIDTH 257 0
DWIDTH 5 0
BBX 5 7 0 8
BITMAP
30
70
F0
30
30
30
F8
ENDCHAR
STARTCHAR 00BA
ENCODING 186
SWIDTH 154 0
DWIDTH 3 0
BBX 3 3 0 7
BITMAP
E0
A0
40
ENDCHAR
STARTCHAR 00BB
ENCODING 187
SWIDTH 668 0
DWIDTH 13 0
BBX 11 8 1 2
BITMAP
E380
71C0
38E0
1C60
1C60
38E0
71C0
E380
ENDCHAR
STARTCHAR 00BC
ENCODING 188
SWIDTH 822 0
DWIDTH 16 0
BBX 15 14 1 0
BITMAP
6038
E030
E070
6060
60C0
61C0
F180
039C
031C
063C
0E2C
0C7E
1C0C
180C
ENDCHAR
STARTCHAR 00BD
ENCODING 189
SWIDTH 874 0
DWIDTH 17 0
BBX 16 14 1 0
BITMAP
6018
E038
E030
6070
6060
60C0
F1C0
018E
039E
0312
0606
0E0C
0C1F
1C1F
ENDCHAR
STARTCHAR 00BE
ENCODING 190
SWIDTH 822 0
DWIDTH 16 0
BBX 15 14 1 0
BITMAP
7018
F830
1870
3060
18E0
D8C0
F980
038C
031C
073C
062C
0C7E
1C0C
180C
ENDCHAR
STARTCHAR 00BF
ENCODING 191
SWIDTH 565 0
DWIDTH 11 0
BBX 9 14 1 -5
BITMAP
1C00
1C00
0800
0000
1C00
1C00
3800
7000
E000
E180
E380
FF80
7F00
1C00
ENDCHAR
STARTCHAR 00C0
ENCODING 192
SWIDTH 668 0
DWIDTH 13 0
BBX 12 19 1 0
BITMAP
3800
1800
0C00
0C00
0000
0E00
0E00
0F00
1F00
1B00
1B80
3980
3180
71C0
7FC0
7FC0
E0E0
E060
C070
ENDCHAR
STARTCHAR 00C1
ENCODING 193
SWIDTH 668 0
DWIDTH 13 0
BBX 12 19 1 0
BITMAP
0380
0300
0700
0600
0000
0E00
0E00
0F00
1F00
1B00
1B80
3980
3180
71C0
7FC0
7FC0
E0E0
E060
C070
ENDCHAR
STARTCHAR 00C2
ENCODING 194
SWIDTH 668 0
DWIDTH 13 0
BBX 12 18 1 0
BITMAP
0E00
1F00
3B80
0000
0E00
0E00
0F00
1F00
1B00
1B80
3980
3180
71C0
7FC0
7FC0
E0E0
E060
C070
ENDCHAR
STARTCHAR 00C3
ENCODING 195
SWIDTH 668 0
DWIDTH 13 0
BBX 12 18 1 0
BITMAP
1D80
1F80
3300
0000
0E00
0E00
0F00
1F00
1B00
1B80
3980
3180
71C0
7FC0
7FC0
E0E0
E060
C070
ENDCHAR
STARTCHAR 00C4
ENCODING 196
SWIDTH 668 0
DWIDTH 13 0
BBX 12 18 1 0
BITMAP
39C0
39C0
1080
0000
0E00
0E00
0F00
1F00
1B00
1B80
3980
3180
71C0
7FC0
7FC0
E0E0
E060
C070
ENDCHAR
STARTCHAR 00C5
ENCODING 197
SWIDTH 668 0
DWIDTH 13 0
BBX 12 19 1 0
BITMAP
0E00
0A00
0A00
0E00
0000
0E00
0E00
0F00
1F00
1B00
1B80
3980
3180
71C0
7FC0
7FC0
E0E0
E060
C070
ENDCHAR
STARTCHAR 00C6
ENCODING 198
SWIDTH 925 0
DWIDTH 18 0
BBX 18 14 0 0
BITMAP
01FFC0
03FFC0
03FFC0
077000
077000
0E7000
0E7F80
1C7F80
1C7000
3FF000
3FF000
707000
707FC0
E07FC0
ENDCHAR
STARTCHAR 00C7
ENCODING 199
SWIDTH 668 0
DWIDTH 13 0
BBX 12 19 1 -5
BITMAP
0F00
3FC0
7FE0
70E0
E070
E000
E000
E000
E000
E070
E060
79E0
3FC0
1F80
0400
0700
0100
0700
0700
ENDCHAR
STARTCHAR 00C8
ENCODING 200
SWIDTH 565 0
DWIDTH 11 0
BBX 9 19 1 0
BITMAP
7000
3000
1800
1800
0000
FF80
FF80
FF80
E000
E000
E000
FF00
FF00
E000
E000
E000
E000
FF80
FF80
ENDCHAR
STARTCHAR 00C9
ENCODING 201
SWIDTH 565 0
DWIDTH 11 0
BBX 9 19 1 0
BITMAP
0700
0600
0E00
0C00
0000
FF80
FF80
FF80
E000
E000
E000
FF00
FF00
E000
E000
E000
E000
FF80
FF80
ENDCHAR
STARTCHAR 00CA
ENCODING 202
SWIDTH 565 0
DWIDTH 11 0
BBX 9 18 1 0
BITMAP
1C00
3E00
7700
0000
FF80
FF80
FF80
E000
E000
E000
FF00
FF00
E000
E000
E000
E000
FF80
FF80
ENDCHAR
STARTCHAR 00CB
ENCODING 203
SWIDTH 565 0
DWIDTH 11 0
BBX 9 18 1 0
BITMAP
7380
7380
2100
0000
FF80
FF80
FF80
E000
E000
E000
FF00
FF00
E000
E000
E000
E000
FF80
FF80
ENDCHAR
STARTCHAR 00CC
ENCODING 204
SWIDTH 257 0
DWIDTH 5 0
BBX 5 19 -1 0
BITMAP
E0
60
30
30
00
38
38
38
38
38
38
38
38
38
38
38
38
38
38
ENDCHAR
STARTCHAR 00CD
ENCODING 205
SWIDTH 257 0
DWIDTH 5 0
BBX 5 19 1 0
BITMAP
38
30
70
60
00
E0
E0
E0
E0
E0
E0
E0
E0
E0
E0
E0
E0
E0
E0
ENDCHAR
STARTCHAR 00CE
ENCODING 206
SWIDTH 257 0
DWIDTH 5 0
BBX 7 18 -1 0
BITMAP
38
7C
EE
00
38
38
38
38
38
38
38
38
38
38
38
38
38
38
ENDCHAR
STARTCHAR 00CF
ENCODING 207
SWIDTH 257 0
DWIDTH 5 0
BBX 8 18 -1 0
BITMAP
E7
E7
42
00
38
38
38
38
38
38
38
38
38
38
38
38
38
38
ENDCHAR
STARTCHAR 00D0
ENCODING 208
SWIDTH 668 0
DWIDTH 13 0
BBX 12 14 1 0
BITMAP
7E00
7FC0
7FE0
60E0
6070
6070
F870
F870
6070
6070
60E0
63E0
7FC0
7F00
ENDCHAR
STARTCHAR 00D1
ENCODING 209
SWIDTH 668 0
DWIDTH 13 0
BBX 12 18 1 0
BITMAP
1C80
1F80
1300
0000
E070
F070
F070
F870
FC70
FC70
EE70
EE70
E770
E3F0
E3F0
E1F0
E1F0
E0F0
ENDCHAR
STARTCHAR 00D2
ENCODING 210
SWIDTH 720 0
DWIDTH 14 0
BBX 12 19 1 0
BITMAP
1800
1C00
0C00
0600
0000
0F00
3FC0
7FE0
70E0
E070
E070
E070
E070
E070
E070
F0F0
79E0
3FC0
1F80
ENDCHAR
STARTCHAR 00D3
ENCODING 211
SWIDTH 720 0
DWIDTH 14 0
BBX 12 19 1 0
BITMAP
0180
0380
0300
0600
0000
0F00
3FC0
7FE0
70E0
E070
E070
E070
E070
E070
E070
F0F0
79E0
3FC0
1F80
ENDCHAR
STARTCHAR 00D4
ENCODING 212
SWIDTH 720 0
DWIDTH 14 0
BBX 12 18 1 0
BITMAP
0600
0F00
1980
0000
0F00
3FC0
7FE0
70E0
E070
E070
E070
E070
E070
E070
F0F0
79E0
3FC0
1F80
ENDCHAR
STARTCHAR 00D5
ENCODING 213
SWIDTH 720 0
DWIDTH 14 0
BBX 12 18 1 0
BITMAP
0C80
1F80
1300
0000
0F00
3FC0
7FE0
70E0
E070
E070
E070
E070
E070
E070
F0F0
79E0
3FC0
1F80
ENDCHAR
STARTCHAR 00D6
ENCODING 214
SWIDTH 720 0
DWIDTH 14 0
BBX 12 18 1 0
BITMAP
39C0
39C0
1080
0000
0F00
3FC0
7FE0
70E0
E070
E070
E070
E070
E070
E070
F0F0
79E0
3FC0
1F80
ENDCHAR
STARTCHAR 00D7
ENCODING 215
SWIDTH 565 0
DWIDTH 11 0
BBX 7 8 2 2
BITMAP
44
EE
7E
3C
7C
FE
E6
40
ENDCHAR
STARTCHAR 00D8
ENCODING 216
SWIDTH 720 0
DWIDTH 14 0
BBX 12 15 1 -1
BITMAP
0F70
3FE0
7FE0
71F0
E1F0
E370
E730
E630
EE70
FC70
7870
79E0
3FC0
7F80
E000
ENDCHAR
STARTCHAR 00D9
ENCODING 217
SWIDTH 668 0
DWIDTH 13 0
BBX 11 19 1 0
BITMAP
3800
1800
0C00
0C00
0000
E060
E060
E060
E060
E060
E060
E060
E060
E060
E0E0
E0E0
79E0
7FC0
1F80
ENDCHAR
STARTCHAR 00DA
ENCODING 218
SWIDTH 668 0
DWIDTH 13 0
BBX 11 19 1 0
BITMAP
0380
0300
0700
0600
0000
E060
E060
E060
E060
E060
E060
E060
E060
E060
E0E0
E0E0
79E0
7FC0
1F80
ENDCHAR
STARTCHAR 00DB
ENCODING 219
SWIDTH 668 0
DWIDTH 13 0
BBX 11 18 1 0
BITMAP
0E00
1F00
3B80
0000
E060
E060
E060
E060
E060
E060
E060
E060
E060
E0E0
E0E0
79E0
7FC0
1F80
ENDCHAR
STARTCHAR 00DC
ENCODING 220
SWIDTH 668 0
DWIDTH 13 0
BBX 11 18 1 0
BITMAP
39C0
39C0
1080
0000
E060
E060
E060
E060
E060
E060
E060
E060
E060
E0E0
E0E0
79E0
7FC0
1F80
ENDCHAR
STARTCHAR 00DD
ENCODING 221
SWIDTH 617 0
DWIDTH 12 0
BBX 11 19 1 0
BITMAP
0380
0700
0600
0E00
0000
C0E0
E0E0
61C0
71C0
3380
3B80
1F00
1F00
0E00
0E00
0E00
0E00
0E00
0E00
ENDCHAR
STARTCHAR 00DE
ENCODING 222
SWIDTH 565 0
DWIDTH 11 0
BBX 10 14 1 0
BITMAP
E000
E000
E000
FF00
FF80
E1C0
E1C0
E1C0
E1C0
E3C0
FF80
FE00
E000
E000
ENDCHAR
STARTCHAR 00DF
ENCODING 223
SWIDTH 565 0
DWIDTH 11 0
BBX 10 14 1 0
BITMAP
3E00
7F00
E380
E180
E180
E380
EF00
EF80
E180
E1C0
E1C0
E380
EF80
EF00
ENDCHAR
STARTCHAR 00E0
ENCODING 224
SWIDTH 617 0
DWIDTH 12 0
BBX 10 16 1 0
BITMAP
7000
3800
1800
1C00
0000
1000
7DC0
FFC0
E3C0
E1C0
C1C0
C1C0
E1C0
E3C0
7FC0
3DC0
ENDCHAR
STARTCHAR 00E1
ENCODING 225
SWIDTH 617 0
DWIDTH 12 0
BBX 10 16 1 0
BITMAP
0380
0700
0600
0E00
0000
1000
7DC0
FFC0
E3C0
E1C0
C1C0
C1C0
E1C0
E3C0
7FC0
3DC0
ENDCHAR
STARTCHAR 00E2
ENCODING 226
SWIDTH 617 0
DWIDTH 12 0
BBX 10 15 1 0
BITMAP
0C00
1E00
3F00
7380
1000
7DC0
FFC0
E3C0
E1C0
C1C0
C1C0
E1C0
E3C0
7FC0
3DC0
ENDCHAR
STARTCHAR 00E3
ENCODING 227
SWIDTH 617 0
DWIDTH 12 0
BBX 10 15 1 0
BITMAP
0100
3F00
2700
0000
1000
7DC0
FFC0
E3C0
E1C0
C1C0
C1C0
E1C0
E3C0
7FC0
3DC0
ENDCHAR
STARTCHAR 00E4
ENCODING 228
SWIDTH 617 0
DWIDTH 12 0
BBX 10 15 1 0
BITMAP
7380
7380
3380
0000
1000
7DC0
FFC0
E3C0
E1C0
C1C0
C1C0
E1C0
E3C0
7FC0
3DC0
ENDCHAR
STARTCHAR 00E5
ENCODING 229
SWIDTH 617 0
DWIDTH 12 0
BBX 10 15 1 1
BITMAP
1E00
1200
1E00
0000
1000
7DC0
FFC0
E3C0
E1C0
C1C0
C1C0
E1C0
E3C0
7FC0
3DC0
ENDCHAR
STARTCHAR 00E6
ENCODING 230
SWIDTH 874 0
DWIDTH 17 0
BBX 16 11 1 0
BITMAP
0010
7EFC
7FFE
E387
0387
3FFF
FFFF
E380
E3C7
FEFE
7C7C
ENDCHAR
STARTCHAR 00E7
ENCODING 231
SWIDTH 565 0
DWIDTH 11 0
BBX 9 16 1 -5
BITMAP
0800
3F00
7F80
E380
E180
C000
C000
E180
E380
7F00
3E00
0800
0E00
0200
0E00
0C00
ENDCHAR
STARTCHAR 00E8
ENCODING 232
SWIDTH 565 0
DWIDTH 11 0
BBX 9 16 1 0
BITMAP
7000
3000
3800
1800
0000
0800
3F00
7780
E180
C180
FF80
FF80
C000
E380
7F00
3E00
ENDCHAR
STARTCHAR 00E9
ENCODING 233
SWIDTH 565 0
DWIDTH 11 0
BBX 9 16 1 0
BITMAP
0300
0700
0600
0C00
0000
0800
3F00
7780
E180
C180
FF80
FF80
C000
E380
7F00
3E00
ENDCHAR
STARTCHAR 00EA
ENCODING 234
SWIDTH 565 0
DWIDTH 11 0
BBX 9 15 1 0
BITMAP
0C00
1E00
3700
6380
0800
3F00
7780
E180
C180
FF80
FF80
C000
E380
7F00
3E00
ENDCHAR
STARTCHAR 00EB
ENCODING 235
SWIDTH 565 0
DWIDTH 11 0
BBX 9 15 1 0
BITMAP
7300
7380
6300
0000
0800
3F00
7780
E180
C180
FF80
FF80
C000
E380
7F00
3E00
ENDCHAR
STARTCHAR 00EC
ENCODING 236
SWIDTH 257 0
DWIDTH 5 0
BBX 5 16 -1 0
BITMAP
E0
60
30
30
00
00
38
38
38
38
38
38
38
38
38
38
ENDCHAR
STARTCHAR 00ED
ENCODING 237
SWIDTH 257 0
DWIDTH 5 0
BBX 5 16 1 0
BITMAP
18
38
30
60
00
00
E0
E0
E0
E0
E0
E0
E0
E0
E0
E0
ENDCHAR
STARTCHAR 00EE
ENCODING 238
SWIDTH 257 0
DWIDTH 5 0
BBX 8 15 -1 0
BITMAP
18
3C
6E
C7
00
38
38
38
38
38
38
38
38
38
38
ENDCHAR
STARTCHAR 00EF
ENCODING 239
SWIDTH 257 0
DWIDTH 5 0
BBX 8 15 -1 0
BITMAP
E7
E7
E6
00
00
38
38
38
38
38
38
38
38
38
38
ENDCHAR
STARTCHAR 00F0
ENCODING 240
SWIDTH 565 0
DWIDTH 11 0
BBX 11 16 0 0
BITMAP
0C40
0FC0
0780
07C0
01C0
00C0
3EC0
7FE0
71E0
60E0
E0E0
60C0
61C0
71C0
3F80
1F00
ENDCHAR
STARTCHAR 00F1
ENCODING 241
SWIDTH 565 0
DWIDTH 11 0
BBX 10 15 1 0
BITMAP
0100
3F00
2E00
0000
0000
EF80
FF80
E1C0
E1C0
E1C0
E1C0
E1C0
E1C0
E1C0
E1C0
ENDCHAR
STARTCHAR 00F2
ENCODING 242
SWIDTH 565 0
DWIDTH 11 0
BBX 10 16 1 0
BITMAP
7000
3000
3800
1800
0000
0000
3F00
7F80
E380
E180
C1C0
C1C0
E180
E380
7F00
3E00
ENDCHAR
STARTCHAR 00F3
ENCODING 243
SWIDTH 565 0
DWIDTH 11 0
BBX 10 16 1 0
BITMAP
0300
0700
0600
0C00
0000
0000
3F00
7F80
E380
E180
C1C0
C1C0
E180
E380
7F00
3E00
ENDCHAR
STARTCHAR 00F4
ENCODING 244
SWIDTH 565 0
DWIDTH 11 0
BBX 10 15 1 0
BITMAP
0C00
1E00
3700
6380
0000
3F00
7F80
E380
E180
C1C0
C1C0
E180
E380
7F00
3E00
ENDCHAR
STARTCHAR 00F5
ENCODING 245
SWIDTH 565 0
DWIDTH 11 0
BBX 10 15 1 0
BITMAP
1300
3F00
2E00
0000
0000
3F00
7F80
E380
E180
C1C0
C1C0
E180
E380
7F00
3E00
ENDCHAR
STARTCHAR 00F6
ENCODING 246
SWIDTH 565 0
DWIDTH 11 0
BBX 10 15 1 0
BITMAP
7300
7380
6300
0000
0000
3F00
7F80
E380
E180
C1C0
C1C0
E180
E380
7F00
3E00
ENDCHAR
STARTCHAR 00F7
ENCODING 247
SWIDTH 565 0
DWIDTH 11 0
BBX 9 10 1 1
BITMAP
1C00
1C00
0800
0000
FF80
FF80
0000
0800
1C00
1C00
ENDCHAR
STARTCHAR 00F8
ENCODING 248
SWIDTH 565 0
DWIDTH 11 0
BBX 10 12 1 -1
BITMAP
0980
3F00
7F80
E780
ED80
CDC0
D9C0
F980
F380
7F00
7E00
C000
ENDCHAR
STARTCHAR 00F9
ENCODING 249
SWIDTH 565 0
DWIDTH 11 0
BBX 9 16 1 0
BITMAP
7000
3000
3800
1800
0000
0000
E180
E180
E180
E180
E180
E180
E180
E380
7F80
7D80
ENDCHAR
STARTCHAR 00FA
ENCODING 250
SWIDTH 565 0
DWIDTH 11 0
BBX 9 16 1 0
BITMAP
0300
0700
0E00
0C00
0000
0000
E180
E180
E180
E180
E180
E180
E180
E380
7F80
7D80
ENDCHAR
STARTCHAR 00FB
ENCODING 251
SWIDTH 565 0
DWIDTH 11 0
BBX 9 15 1 0
BITMAP
0C00
1E00
3600
6300
0000
E180
E180
E180
E180
E180
E180
E180
E380
7F80
7D80
ENDCHAR
STARTCHAR 00FC
ENCODING 252
SWIDTH 565 0
DWIDTH 11 0
BBX 9 15 1 0
BITMAP
6300
7380
6300
0000
0000
E180
E180
E180
E180
E180
E180
E180
E380
7F80
7D80
ENDCHAR
STARTCHAR 00FD
ENCODING 253
SWIDTH 514 0
DWIDTH 10 0
BBX 9 20 1 -4
BITMAP
0700
0600
0E00
0C00
0000
0000
C180
E380
E300
6300
7700
3600
3600
3E00
1C00
1C00
1800
3800
F800
F000
ENDCHAR
STARTCHAR 00FE
ENCODING 254
SWIDTH 617 0
DWIDTH 12 0
BBX 10 20 1 -5
BITMAP
E000
E000
E000
E000
E000
EF80
FF80
E1C0
E1C0
E1C0
E1C0
E1C0
F1C0
FF80
EF00
E000
E000
E000
E000
E000
ENDCHAR
STARTCHAR 00FF
ENCODING 255
SWIDTH 514 0
DWIDTH 10 0
BBX 9 19 1 -4
BITMAP
6300
7300
6300
0000
0000
C180
E380
E300
6300
7700
3600
3600
3E00
1C00
1C00
1800
3800
F800
F000
ENDCHAR
STARTCHAR 0100
ENCODING 256
SWIDTH 668 0
DWIDTH 13 0
BBX 12 17 1 0
BITMAP
3F80
3F80
0000
0E00
0E00
0F00
1F00
1B00
1B80
3980
3180
71C0
7FC0
7FC0
E0E0
E060
C070
ENDCHAR
STARTCHAR 0101
ENCODING 257
SWIDTH 617 0
DWIDTH 12 0
BBX 10 13 1 0
BITMAP
3F00
0000
1000
7DC0
FFC0
E3C0
E1C0
C1C0
C1C0
E1C0
E3C0
7FC0
3DC0
ENDCHAR
STARTCHAR 0102
ENCODING 258
SWIDTH 668 0
DWIDTH 13 0
BBX 12 17 1 0
BITMAP
3F80
0E00
0000
0E00
0E00
0F00
1F00
1B00
1B80
3980
3180
71C0
7FC0
7FC0
E0E0
E060
C070
ENDCHAR
STARTCHAR 0103
ENCODING 259
SWIDTH 617 0
DWIDTH 12 0
BBX 10 14 1 0
BITMAP
3300
1E00
0000
1000
7DC0
FFC0
E3C0
E1C0
C1C0
C1C0
E1C0
E3C0
7FC0
3DC0
ENDCHAR
STARTCHAR 0104
ENCODING 260
SWIDTH 668 0
DWIDTH 13 0
BBX 12 17 1 -3
BITMAP
0E00
0E00
0F00
1F00
1B00
1B80
3980
3180
71C0
7FC0
7FC0
E0E0
E060
C070
0040
00C0
0070
ENDCHAR
STARTCHAR 0105
ENCODING 261
SWIDTH 617 0
DWIDTH 12 0
BBX 10 14 1 -3
BITMAP
1000
7DC0
FFC0
E3C0
E1C0
C1C0
C1C0
E1C0
E3C0
7FC0
3DC0
0180
0180
01C0
ENDCHAR
STARTCHAR 0106
ENCODING 262
SWIDTH 668 0
DWIDTH 13 0
BBX 12 19 1 0
BITMAP
0180
0380
0300
0600
0000
0F00
3FC0
7FE0
70E0
E070
E000
E000
E000
E000
E070
E060
79E0
3FC0
1F80
ENDCHAR
STARTCHAR 0107
ENCODING 263
SWIDTH 565 0
DWIDTH 11 0
BBX 9 16 1 0
BITMAP
0300
0700
0600
0C00
0000
0800
3F00
7F80
E380
E180
C000
C000
E180
E380
7F00
3E00
ENDCHAR
STARTCHAR 010A
ENCODING 266
SWIDTH 668 0
DWIDTH 13 0
BBX 12 18 1 0
BITMAP
0600
0E00
0600
0000
0F00
3FC0
7FE0
70E0
E070
E000
E000
E000
E000
E070
E060
79E0
3FC0
1F80
ENDCHAR
STARTCHAR 010B
ENCODING 267
SWIDTH 565 0
DWIDTH 11 0
BBX 9 15 1 0
BITMAP
0C00
1C00
0C00
0000
0800
3F00
7F80
E380
E180
C000
C000
E180
E380
7F00
3E00
ENDCHAR
STARTCHAR 010C
ENCODING 268
SWIDTH 668 0
DWIDTH 13 0
BBX 12 18 1 0
BITMAP
1980
1F00
0E00
0000
0F00
3FC0
7FE0
70E0
E070
E000
E000
E000
E000
E070
E060
79E0
3FC0
1F80
ENDCHAR
STARTCHAR 010D
ENCODING 269
SWIDTH 565 0
DWIDTH 11 0
BBX 9 15 1 0
BITMAP
6300
3700
1E00
0C00
0800
3F00
7F80
E380
E180
C000
C000
E180
E380
7F00
3E00
ENDCHAR
STARTCHAR 010E
ENCODING 270
SWIDTH 668 0
DWIDTH 13 0
BBX 11 18 1 0
BITMAP
3380
1F00
0E00
0000
FE00
FF80
FFC0
E1E0
E0E0
E0E0
E060
E060
E060
E0E0
E0E0
E3C0
FF80
FF00
ENDCHAR
STARTCHAR 010F
ENCODING 271
SWIDTH 771 0
DWIDTH 15 0
BBX 14 16 1 0
BITMAP
0018
01DC
01DC
01C4
01C4
01D8
7DC0
FFC0
E3C0
E1C0
E1C0
E1C0
E1C0
E3C0
7FC0
3DC0
ENDCHAR
STARTCHAR 0110
ENCODING 272
SWIDTH 668 0
DWIDTH 13 0
BBX 12 14 1 0
BITMAP
7E00
7FC0
7FE0
60E0
6070
6070
F870
F870
6070
6070
60E0
63E0
7FC0
7F00
ENDCHAR
STARTCHAR 0111
ENCODING 273
SWIDTH 617 0
DWIDTH 12 0
BBX 11 15 1 0
BITMAP
01C0
01C0
07E0
07E0
01C0
7DC0
FFC0
E3C0
E1C0
E1C0
E1C0
E1C0
E3C0
7FC0
3DC0
ENDCHAR
STARTCHAR 0112
ENCODING 274
SWIDTH 565 0
DWIDTH 11 0
BBX 9 17 1 0
BITMAP
7F00
7F00
0000
FF80
FF80
FF80
E000
E000
E000
FF00
FF00
E000
E000
E000
E000
FF80
FF80
ENDCHAR
STARTCHAR 0113
ENCODING 275
SWIDTH 565 0
DWIDTH 11 0
BBX 9 13 1 0
BITMAP
3F00
0000
0800
3F00
7780
E180
C180
FF80
FF80
C000
E380
7F00
3E00
ENDCHAR
STARTCHAR 0116
ENCODING 278
SWIDTH 565 0
DWIDTH 11 0
BBX 9 18 1 0
BITMAP
1C00
1C00
0800
0000
FF80
FF80
FF80
E000
E000
E000
FF00
FF00
E000
E000
E000
E000
FF80
FF80
ENDCHAR
STARTCHAR 0117
ENCODING 279
SWIDTH 565 0
DWIDTH 11 0
BBX 9 15 1 0
BITMAP
0C00
1C00
0C00
0000
0800
3F00
7780
E180
C180
FF80
FF80
C000
E380
7F00
3E00
ENDCHAR
STARTCHAR 0118
ENCODING 280
SWIDTH 565 0
DWIDTH 11 0
BBX 10 17 1 -3
BITMAP
FF80
FF80
FF80
E000
E000
E000
FF00
FF00
E000
E000
E000
E000
FF80
FF80
0100
0300
01C0
ENDCHAR
STARTCHAR 0119
ENCODING 281
SWIDTH 565 0
DWIDTH 11 0
BBX 9 14 1 -4
BITMAP
0800
3F00
7780
E180
C180
FF80
FF80
C000
E380
7F00
3E00
1800
1800
1C00
ENDCHAR
STARTCHAR 011A
ENCODING 282
SWIDTH 565 0
DWIDTH 11 0
BBX 9 18 1 0
BITMAP
7300
3E00
1C00
0000
FF80
FF80
FF80
E000
E000
E000
FF00
FF00
E000
E000
E000
E000
FF80
FF80
ENDCHAR
STARTCHAR 011B
ENCODING 283
SWIDTH 565 0
DWIDTH 11 0
BBX 9 15 1 0
BITMAP
6300
3700
1E00
0C00
0800
3F00
7780
E180
C180
FF80
FF80
C000
E380
7F00
3E00
ENDCHAR
STARTCHAR 011E
ENCODING 286
SWIDTH 668 0
DWIDTH 13 0
BBX 12 17 1 0
BITMAP
1F80
0F00
0000
0F00
3FC0
7FE0
70E0
E070
E000
E000
E3F0
E3F0
E070
E070
70F0
3FB0
1F30
ENDCHAR
STARTCHAR 011F
ENCODING 287
SWIDTH 565 0
DWIDTH 11 0
BBX 10 18 1 -4
BITMAP
3300
1E00
0000
0000
7DC0
FFC0
E1C0
E1C0
E1C0
E1C0
E1C0
F3C0
7FC0
3DC0
01C0
0380
1F80
1F00
ENDCHAR
STARTCHAR 0120
ENCODING 288
SWIDTH 668 0
DWIDTH 13 0
BBX 12 18 1 0
BITMAP
0600
0600
0600
0000
0F00
3FC0
7FE0
70E0
E070
E000
E000
E3F0
E3F0
E070
E070
70F0
3FB0
1F30
ENDCHAR
STARTCHAR 0121
ENCODING 289
SWIDTH 565 0
DWIDTH 11 0
BBX 10 19 1 -4
BITMAP
0C00
1C00
0C00
0000
0000
7DC0
FFC0
E1C0
E1C0
E1C0
E1C0
E1C0
F3C0
7FC0
3DC0
01C0
0380
1F80
1F00
ENDCHAR
STARTCHAR 0126
ENCODING 294
SWIDTH 668 0
DWIDTH 13 0
BBX 13 14 0 0
BITMAP
7030
7030
FFF8
FFF8
7030
7030
7FF0
7FF0
7030
7030
7030
7030
7030
7030
ENDCHAR
STARTCHAR 0127
ENCODING 295
SWIDTH 565 0
DWIDTH 11 0
BBX 11 15 0 0
BITMAP
7000
7000
FC00
FC00
7100
77C0
7FE0
78E0
70E0
70E0
70E0
70E0
70E0
70E0
70E0
ENDCHAR
STARTCHAR 0128
ENCODING 296
SWIDTH 257 0
DWIDTH 5 0
BBX 7 18 -1 0
BITMAP
76
7E
CC
00
38
38
38
38
38
38
38
38
38
38
38
38
38
38
ENDCHAR
STARTCHAR 0129
ENCODING 297
SWIDTH 257 0
DWIDTH 5 0
BBX 6 15 0 0
BITMAP
0C
FC
B8
00
00
70
70
70
70
70
70
70
70
70
70
ENDCHAR
STARTCHAR 012A
ENCODING 298
SWIDTH 257 0
DWIDTH 5 0
BBX 7 17 -1 0
BITMAP
FE
FE
00
38
38
38
38
38
38
38
38
38
38
38
38
38
38
ENDCHAR
STARTCHAR 012B
ENCODING 299
SWIDTH 257 0
DWIDTH 5 0
BBX 6 13 0 0
BITMAP
FC
00
00
70
70
70
70
70
70
70
70
70
70
ENDCHAR
STARTCHAR 012E
ENCODING 302
SWIDTH 257 0
DWIDTH 5 0
BBX 4 17 1 -3
BITMAP
E0
E0
E0
E0
E0
E0
E0
E0
E0
E0
E0
E0
E0
E0
C0
C0
F0
ENDCHAR
STARTCHAR 012F
ENCODING 303
SWIDTH 257 0
DWIDTH 5 0
BBX 4 18 1 -3
BITMAP
60
E0
60
00
00
E0
E0
E0
E0
E0
E0
E0
E0
E0
E0
40
C0
70
ENDCHAR
STARTCHAR 0130
ENCODING 304
SWIDTH 257 0
DWIDTH 5 0
BBX 3 18 1 0
BITMAP
E0
E0
40
00
E0
E0
E0
E0
E0
E0
E0
E0
E0
E0
E0
E0
E0
E0
ENDCHAR
STARTCHAR 0131
ENCODING 305
SWIDTH 257 0
DWIDTH 5 0
BBX 3 10 1 0
BITMAP
E0
E0
E0
E0
E0
E0
E0
E0
E0
E0
ENDCHAR
STARTCHAR 0139
ENCODING 313
SWIDTH 514 0
DWIDTH 10 0
BBX 9 19 1 0
BITMAP
3800
3000
6000
6000
0000
E000
E000
E000
E000
E000
E000
E000
E000
E000
E000
E000
E000
FF80
FF80
ENDCHAR
STARTCHAR 013A
ENCODING 314
SWIDTH 308 0
DWIDTH 6 0
BBX 5 20 1 0
BITMAP
38
30
70
60
00
E0
E0
E0
E0
E0
E0
E0
E0
E0
E0
E0
E0
E0
F8
78
ENDCHAR
STARTCHAR 013D
ENCODING 317
SWIDTH 514 0
DWIDTH 10 0
BBX 11 18 -1 0
BITMAP
CE00
7C00
3800
0000
3800
3800
3800
3800
3800
3800
3800
3800
3800
3800
3800
3800
3FE0
3FE0
ENDCHAR
STARTCHAR 013E
ENCODING 318
SWIDTH 411 0
DWIDTH 8 0
BBX 7 16 1 0
BITMAP
0C
EE
EE
E2
E2
EC
E0
E0
E0
E0
E0
E0
E0
E0
F8
78
ENDCHAR
STARTCHAR 0143
ENCODING 323
SWIDTH 668 0
DWIDTH 13 0
BBX 12 19 1 0
BITMAP
0180
0380
0300
0600
0000
E070
F070
F070
F870
FC70
FC70
EE70
EE70
E770
E3F0
E3F0
E1F0
E1F0
E0F0
ENDCHAR
STARTCHAR 0144
ENCODING 324
SWIDTH 565 0
DWIDTH 11 0
BBX 10 16 1 0
BITMAP
0300
0700
0600
0C00
0000
0000
EF80
FF80
E1C0
E1C0
E1C0
E1C0
E1C0
E1C0
E1C0
E1C0
ENDCHAR
STARTCHAR 0147
ENCODING 327
SWIDTH 668 0
DWIDTH 13 0
BBX 12 18 1 0
BITMAP
3980
1F00
0E00
0000
E070
F070
F070
F870
FC70
FC70
EE70
EE70
E770
E3F0
E3F0
E1F0
E1F0
E0F0
ENDCHAR
STARTCHAR 0148
ENCODING 328
SWIDTH 565 0
DWIDTH 11 0
BBX 10 15 1 0
BITMAP
7380
3700
1E00
0C00
0000
EF80
FF80
E1C0
E1C0
E1C0
E1C0
E1C0
E1C0
E1C0
E1C0
ENDCHAR
STARTCHAR 014C
ENCODING 332
SWIDTH 720 0
DWIDTH 14 0
BBX 12 17 1 0
BITMAP
1F80
1F80
0000
0F00
3FC0
7FE0
70E0
E070
E070
E070
E070
E070
E070
F0F0
79E0
3FC0
1F80
ENDCHAR
STARTCHAR 014D
ENCODING 333
SWIDTH 565 0
DWIDTH 11 0
BBX 10 13 1 0
BITMAP
3F00
0000
0000
3F00
7F80
E380
E180
C1C0
C1C0
E180
E380
7F00
3E00
ENDCHAR
STARTCHAR 0152
ENCODING 338
SWIDTH 925 0
DWIDTH 18 0
BBX 17 14 1 0
BITMAP
07FF80
3FFF80
7FFF80
70E000
E0E000
E0E000
E0FF00
E0FF00
E0E000
E0E000
F0E000
78E000
3FFF80
1FFF80
ENDCHAR
STARTCHAR 0153
ENCODING 339
SWIDTH 925 0
DWIDTH 18 0
BBX 17 10 1 1
BITMAP
3E7E00
7FEF00
E3C300
E1C300
C1FF80
C1FF80
E1C000
E3C700
7FFF00
3E3C00
ENDCHAR
STARTCHAR 0154
ENCODING 340
SWIDTH 565 0
DWIDTH 11 0
BBX 10 19 1 0
BITMAP
0700
0600
0E00
0C00
0000
FC00
FF80
FF80
E1C0
E1C0
E1C0
E3C0
FF80
FF00
E700
E700
E380
E180
E1C0
ENDCHAR
STARTCHAR 0155
ENCODING 341
SWIDTH 360 0
DWIDTH 7 0
BBX 7 16 1 0
BITMAP
0E
1C
18
38
00
00
EC
FC
F0
E0
E0
E0
E0
E0
E0
E0
ENDCHAR
STARTCHAR 0158
ENCODING 344
SWIDTH 565 0
DWIDTH 11 0
BBX 10 18 1 0
BITMAP
7300
3E00
1C00
0000
FC00
FF80
FF80
E1C0
E1C0
E1C0
E3C0
FF80
FF00
E700
E700
E380
E180
E1C0
ENDCHAR
STARTCHAR 0159
ENCODING 345
SWIDTH 360 0
DWIDTH 7 0
BBX 8 15 0 0
BITMAP
E7
7E
3C
18
00
76
7E
78
70
70
70
70
70
70
70
ENDCHAR
STARTCHAR 015A
ENCODING 346
SWIDTH 565 0
DWIDTH 11 0
BBX 10 19 1 0
BITMAP
0380
0300
0700
0600
0000
1E00
7F80
7380
E1C0
E000
F000
7F00
3F80
03C0
01C0
E1C0
F3C0
7F80
3F00
ENDCHAR
STARTCHAR 015B
ENCODING 347
SWIDTH 462 0
DWIDTH 9 0
BBX 8 16 1 0
BITMAP
06
0E
0C
18
00
00
7E
EF
C7
E0
7E
1F
07
E7
FE
7C
ENDCHAR
STARTCHAR 015E
ENCODING 350
SWIDTH 565 0
DWIDTH 11 0
BBX 10 19 1 -5
BITMAP
1E00
7F80
7380
E1C0
E000
F000
7F00
3F80
03C0
01C0
E1C0
F3C0
7F80
3F00
0800
0E00
0300
0E00
0E00
ENDCHAR
STARTCHAR 015F
ENCODING 351
SWIDTH 462 0
DWIDTH 9 0
BBX 8 15 1 -4
BITMAP
7E
EF
C7
E0
7E
1F
07
E7
FE
7C
18
1C
06
1E
1C
ENDCHAR
STARTCHAR 0160
ENCODING 352
SWIDTH 565 0
DWIDTH 11 0
BBX 10 18 1 0
BITMAP
3B80
1B00
0E00
0000
1E00
7F80
7380
E1C0
E000
F000
7F00
3F80
03C0
01C0
E1C0
F3C0
7F80
3F00
ENDCHAR
STARTCHAR 0161
ENCODING 353
SWIDTH 462 0
DWIDTH 9 0
BBX 8 15 1 0
BITMAP
E6
7E
3C
00
00
7E
EF
C7
E0
7E
1F
07
E7
FE
7C
ENDCHAR
STARTCHAR 0162
ENCODING 354
SWIDTH 565 0
DWIDTH 11 0
BBX 10 19 1 -5
BITMAP
FFC0
FFC0
FFC0
1C00
1C00
1C00
1C00
1C00
1C00
1C00
1C00
1C00
1C00
1C00
0800
1E00
0200
1E00
1C00
ENDCHAR
STARTCHAR 0163
ENCODING 355
SWIDTH 411 0
DWIDTH 8 0
BBX 6 19 1 -5
BITMAP
70
70
70
70
FC
FC
70
70
70
70
70
70
7C
3C
10
1C
04
1C
18
ENDCHAR
STARTCHAR 0164
ENCODING 356
SWIDTH 565 0
DWIDTH 11 0
BBX 10 18 1 0
BITMAP
7300
3E00
1C00
0000
FFC0
FFC0
FFC0
1C00
1C00
1C00
1C00
1C00
1C00
1C00
1C00
1C00
1C00
1C00
ENDCHAR
STARTCHAR 0165
ENCODING 357
SWIDTH 514 0
DWIDTH 10 0
BBX 10 16 1 0
BITMAP
0180
03C0
73C0
70C0
7080
7180
FC00
FC00
7000
7000
7000
7000
7000
7000
7C00
3C00
ENDCHAR
STARTCHAR 0166
ENCODING 358
SWIDTH 565 0
DWIDTH 11 0
BBX 10 14 1 0
BITMAP
FFC0
FFC0
FFC0
1C00
1C00
1C00
FF80
FF80
1C00
1C00
1C00
1C00
1C00
1C00
ENDCHAR
STARTCHAR 0167
ENCODING 359
SWIDTH 411 0
DWIDTH 8 0
BBX 6 14 1 0
BITMAP
70
70
70
70
FC
FC
70
70
FC
70
70
70
7C
3C
ENDCHAR
STARTCHAR 0168
ENCODING 360
SWIDTH 668 0
DWIDTH 13 0
BBX 11 18 1 0
BITMAP
1D80
1F80
1300
0000
E060
E060
E060
E060
E060
E060
E060
E060
E060
E0E0
E0E0
79E0
7FC0
1F80
ENDCHAR
STARTCHAR 0169
ENCODING 361
SWIDTH 565 0
DWIDTH 11 0
BBX 9 15 1 0
BITMAP
0300
3F00
6E00
0000
0000
E180
E180
E180
E180
E180
E180
E180
E380
7F80
7D80
ENDCHAR
STARTCHAR 016A
ENCODING 362
SWIDTH 668 0
DWIDTH 13 0
BBX 11 17 1 0
BITMAP
1F80
1F80
0000
E060
E060
E060
E060
E060
E060
E060
E060
E060
E0E0
E0E0
79E0
7FC0
1F80
ENDCHAR
STARTCHAR 016B
ENCODING 363
SWIDTH 565 0
DWIDTH 11 0
BBX 9 13 1 0
BITMAP
7F00
0000
0000
E180
E180
E180
E180
E180
E180
E180
E380
7F80
7D80
ENDCHAR
STARTCHAR 016E
ENCODING 366
SWIDTH 668 0
DWIDTH 13 0
BBX 11 19 1 0
BITMAP
0600
0B00
0B00
0E00
0000
E060
E060
E060
E060
E060
E060
E060
E060
E060
E0E0
E0E0
79E0
7FC0
1F80
ENDCHAR
STARTCHAR 016F
ENCODING 367
SWIDTH 565 0
DWIDTH 11 0
BBX 9 16 1 0
BITMAP
0800
1C00
1600
1C00
0000
0000
E180
E180
E180
E180
E180
E180
E180
E380
7F80
7D80
ENDCHAR
STARTCHAR 0172
ENCODING 370
SWIDTH 668 0
DWIDTH 13 0
BBX 11 17 1 -3
BITMAP
E060
E060
E060
E060
E060
E060
E060
E060
E060
E0E0
E0E0
79E0
7FC0
1F80
0C00
0C00
0F00
ENDCHAR
STARTCHAR 0173
ENCODING 371
SWIDTH 565 0
DWIDTH 11 0
BBX 10 13 1 -3
BITMAP
E180
E180
E180
E180
E180
E180
E180
E380
7F80
7D80
0180
0100
01C0
ENDCHAR
STARTCHAR 0174
ENCODING 372
SWIDTH 977 0
DWIDTH 19 0
BBX 19 18 0 0
BITMAP
00E000
01F000
01B800
020000
E0E0E0
60E0E0
60E0E0
70F0C0
71F1C0
31F1C0
31B9C0
3BB980
3B9980
1B1F80
1F1F80
1F0F00
1E0F00
0E0F00
ENDCHAR
STARTCHAR 0175
ENCODING 373
SWIDTH 822 0
DWIDTH 16 0
BBX 14 15 1 0
BITMAP
0300
0780
0FC0
1CE0
0000
C30C
C78C
E79C
E79C
6FD8
6ED8
7CD8
7CF8
3CF0
3870
ENDCHAR
STARTCHAR 0176
ENCODING 374
SWIDTH 617 0
DWIDTH 12 0
BBX 11 18 1 0
BITMAP
0E00
1F00
3B00
0080
C0E0
E0E0
61C0
71C0
3380
3B80
1F00
1F00
0E00
0E00
0E00
0E00
0E00
0E00
ENDCHAR
STARTCHAR 0177
ENCODING 375
SWIDTH 514 0
DWIDTH 10 0
BBX 9 19 1 -4
BITMAP
1800
3C00
3600
6300
0000
C180
E380
E300
6300
7700
3600
3600
3E00
1C00
1C00
1800
3800
F800
F000
ENDCHAR
STARTCHAR 0178
ENCODING 376
SWIDTH 617 0
DWIDTH 12 0
BBX 11 18 1 0
BITMAP
3380
7380
3100
0000
C0E0
E0E0
61C0
71C0
3380
3B80
1F00
1F00
0E00
0E00
0E00
0E00
0E00
0E00
ENDCHAR
STARTCHAR 0179
ENCODING 377
SWIDTH 617 0
DWIDTH 12 0
BBX 10 19 1 0
BITMAP
0300
0700
0600
0C00
0000
FFC0
FFC0
FFC0
03C0
0380
0700
0E00
1C00
3800
3800
7000
E000
FFC0
FFC0
ENDCHAR
STARTCHAR 017A
ENCODING 378
SWIDTH 462 0
DWIDTH 9 0
BBX 8 16 1 0
BITMAP
07
0E
0C
1C
00
00
FF
FF
0E
0C
1C
38
70
E0
FF
FF
ENDCHAR
STARTCHAR 017B
ENCODING 379
SWIDTH 617 0
DWIDTH 12 0
BBX 10 18 1 0
BITMAP
0C00
0E00
0C00
0000
FFC0
FFC0
FFC0
03C0
0380
0700
0E00
1C00
3800
3800
7000
E000
FFC0
FFC0
ENDCHAR
STARTCHAR 017C
ENCODING 380
SWIDTH 462 0
DWIDTH 9 0
BBX 8 15 1 0
BITMAP
18
38
18
00
00
FF
FF
0E
0C
1C
38
70
E0
FF
FF
ENDCHAR
STARTCHAR 017D
ENCODING 381
SWIDTH 617 0
DWIDTH 12 0
BBX 10 18 1 0
BITMAP
3300
1F00
1E00
0000
FFC0
FFC0
FFC0
03C0
0380
0700
0E00
1C00
3800
3800
7000
E000
FFC0
FFC0
ENDCHAR
STARTCHAR 017E
ENCODING 382
SWIDTH 462 0
DWIDTH 9 0
BBX 8 15 1 0
BITMAP
E7
7E
3C
18
00
FF
FF
0E
0C
1C
38
70
E0
FF
FF
ENDCHAR
STARTCHAR 01A0
ENCODING 416
SWIDTH 720 0
DWIDTH 14 0
BBX 12 16 1 0
BITMAP
0030
0030
0FF0
3FC0
7FE0
70E0
E070
E070
E070
E070
E070
E070
F0F0
79E0
3FC0
1F80
ENDCHAR
STARTCHAR 01A1
ENCODING 417
SWIDTH 565 0
DWIDTH 11 0
BBX 10 12 1 0
BITMAP
00C0
00C0
3F80
7F80
E380
E180
C1C0
C1C0
E180
E380
7F00
3E00
ENDCHAR
STARTCHAR 01AF
ENCODING 431
SWIDTH 668 0
DWIDTH 13 0
BBX 13 16 1 0
BITMAP
0008
0008
E078
E070
E060
E060
E060
E060
E060
E060
E060
E0E0
E0E0
79E0
7FC0
1F80
ENDCHAR
STARTCHAR 01B0
ENCODING 432
SWIDTH 565 0
DWIDTH 11 0
BBX 12 12 1 0
BITMAP
0030
0030
E1E0
E180
E180
E180
E180
E180
E180
E380
7F80
7D80
ENDCHAR
STARTCHAR 02C6
ENCODING 710
SWIDTH 411 0
DWIDTH 8 0
BBX 7 4 1 11
BITMAP
30
78
6C
C6
ENDCHAR
STARTCHAR 02C7
ENCODING 711
SWIDTH 411 0
DWIDTH 8 0
BBX 7 4 1 11
BITMAP
C6
6C
78
30
ENDCHAR
STARTCHAR 02D8
ENCODING 728
SWIDTH 411 0
DWIDTH 8 0
BBX 6 2 1 12
BITMAP
CC
7C
ENDCHAR
STARTCHAR 02D9
ENCODING 729
SWIDTH 205 0
DWIDTH 4 0
BBX 3 3 1 12
BITMAP
C0
E0
C0
ENDCHAR
STARTCHAR 02DA
ENCODING 730
SWIDTH 257 0
DWIDTH 5 0
BBX 3 4 1 12
BITMAP
40
E0
A0
E0
ENDCHAR
STARTCHAR 02DB
ENCODING 731
SWIDTH 205 0
DWIDTH 4 0
BBX 3 4 1 -4
BITMAP
C0
80
C0
E0
ENDCHAR
STARTCHAR 02DC
ENCODING 732
SWIDTH 360 0
DWIDTH 7 0
BBX 6 3 1 12
BITMAP
04
FC
98
ENDCHAR
STARTCHAR 0300
ENCODING 768
SWIDTH 0 0
DWIDTH 0 0
BBX 4 4 -5 12
BITMAP
E0
60
70
30
ENDCHAR
STARTCHAR 0301
ENCODING 769
SWIDTH 0 0
DWIDTH 0 0
BBX 4 4 -4 12
BITMAP
70
60
E0
C0
ENDCHAR
STARTCHAR 0302
ENCODING 770
SWIDTH 0 0
DWIDTH 0 0
BBX 7 4 -7 11
BITMAP
30
78
EC
C6
ENDCHAR
STARTCHAR 0303
ENCODING 771
SWIDTH 0 0
DWIDTH 0 0
BBX 6 3 -7 12
BITMAP
04
FC
DC
ENDCHAR
STARTCHAR 0304
ENCODING 772
SWIDTH 0 0
DWIDTH 0 0
BBX 6 1 -8 13
BITMAP
FC
ENDCHAR
STARTCHAR 0306
ENCODING 774
SWIDTH 0 0
DWIDTH 0 0
BBX 6 2 -7 12
BITMAP
CC
7C
ENDCHAR
STARTCHAR 0307
ENCODING 775
SWIDTH 0 0
DWIDTH 0 0
BBX 3 3 -4 12
BITMAP
E0
E0
C0
ENDCHAR
STARTCHAR 0308
ENCODING 776
SWIDTH 0 0
DWIDTH 0 0
BBX 8 3 -9 12
BITMAP
E7
E7
E6
ENDCHAR
STARTCHAR 0309
ENCODING 777
SWIDTH 0 0
DWIDTH 0 0
BBX 5 4 -6 12
BITMAP
78
F8
08
30
ENDCHAR
STARTCHAR 030A
ENCODING 778
SWIDTH 0 0
DWIDTH 0 0
BBX 4 3 -5 13
BITMAP
F0
90
70
ENDCHAR
STARTCHAR 030C
ENCODING 780
SWIDTH 0 0
DWIDTH 0 0
BBX 7 4 -8 11
BITMAP
C6
6C
38
18
ENDCHAR
STARTCHAR 031B
ENCODING 795
SWIDTH 0 0
DWIDTH 0 0
BBX 4 3 -4 12
BITMAP
30
30
E0
ENDCHAR
STARTCHAR 0323
ENCODING 803
SWIDTH 0 0
DWIDTH 0 0
BBX 3 3 -3 -5
BITMAP
E0
E0
40
ENDCHAR
STARTCHAR 0327
ENCODING 807
SWIDTH 0 0
DWIDTH 0 0
BBX 3 5 -4 -5
BITMAP
80
E0
20
E0
C0
ENDCHAR
STARTCHAR 0328
ENCODING 808
SWIDTH 0 0
DWIDTH 0 0
BBX 3 4 -4 -4
BITMAP
40
C0
C0
E0
ENDCHAR
STARTCHAR 1E80
ENCODING 7808
SWIDTH 977 0
DWIDTH 19 0
BBX 19 19 0 0
BITMAP
038000
018000
00C000
00C000
000000
E0E0E0
60E0E0
60E0E0
70F0C0
71F1C0
31F1C0
31B9C0
3BB980
3B9980
1B1F80
1F1F80
1F0F00
1E0F00
0E0F00
ENDCHAR
STARTCHAR 1E81
ENCODING 7809
SWIDTH 822 0
DWIDTH 16 0
BBX 14 16 1 0
BITMAP
1C00
0E00
0600
0700
0000
0000
C30C
C78C
E79C
E79C
6FD8
6ED8
7CD8
7CF8
3CF0
3870
ENDCHAR
STARTCHAR 1E82
ENCODING 7810
SWIDTH 977 0
DWIDTH 19 0
BBX 19 19 0 0
BITMAP
003800
003000
007000
006000
000000
E0E0E0
60E0E0
60E0E0
70F0C0
71F1C0
31F1C0
31B9C0
3BB980
3B9980
1B1F80
1F1F80
1F0F00
1E0F00
0E0F00
ENDCHAR
STARTCHAR 1E83
ENCODING 7811
SWIDTH 822 0
DWIDTH 16 0
BBX 14 16 1 0
BITMAP
00E0
01C0
0180
0380
0000
0000
C30C
C78C
E79C
E79C
6FD8
6ED8
7CD8
7CF8
3CF0
3870
ENDCHAR
STARTCHAR 1E84
ENCODING 7812
SWIDTH 977 0
DWIDTH 19 0
BBX 19 18 0 0
BITMAP
039C00
039C00
010800
000000
E0E0E0
60E0E0
60E0E0
70F0C0
71F1C0
31F1C0
31B9C0
3BB980
3B9980
1B1F80
1F1F80
1F0F00
1E0F00
0E0F00
ENDCHAR
STARTCHAR 1E85
ENCODING 7813
SWIDTH 822 0
DWIDTH 16 0
BBX 14 15 1 0
BITMAP
0CE0
1CE0
0C60
0000
0000
C30C
C78C
E79C
E79C
6FD8
6ED8
7CD8
7CF8
3CF0
3870
ENDCHAR
STARTCHAR 1EA0
ENCODING 7840
SWIDTH 668 0
DWIDTH 13 0
BBX 12 19 1 -5
BITMAP
0E00
0E00
0F00
1F00
1B00
1B80
3980
3180
71C0
7FC0
7FC0
E0E0
E060
C070
0000
0000
0E00
0E00
0400
ENDCHAR
STARTCHAR 1EA1
ENCODING 7841
SWIDTH 617 0
DWIDTH 12 0
BBX 10 16 1 -5
BITMAP
1000
7DC0
FFC0
E3C0
E1C0
C1C0
C1C0
E1C0
E3C0
7FC0
3DC0
0000
0000
0C00
0C00
0C00
ENDCHAR
STARTCHAR 1EA2
ENCODING 7842
SWIDTH 668 0
DWIDTH 13 0
BBX 12 19 1 0
BITMAP
0E00
1B00
0300
0600
0000
0E00
0E00
0F00
1F00
1B00
1B80
3980
3180
71C0
7FC0
7FC0
E0E0
E060
C070
ENDCHAR
STARTCHAR 1EA3
ENCODING 7843
SWIDTH 617 0
DWIDTH 12 0
BBX 10 16 1 0
BITMAP
0C00
1E00
0200
0600
0800
1000
7DC0
FFC0
E3C0
E1C0
C1C0
C1C0
E1C0
E3C0
7FC0
3DC0
ENDCHAR
STARTCHAR 1EA4
ENCODING 7844
SWIDTH 668 0
DWIDTH 13 0
BBX 12 21 1 0
BITMAP
0030
0070
0060
0EC0
1F00
3B80
0000
0E00
0E00
0F00
1F00
1B00
1B80
3980
3180
71C0
7FC0
7FC0
E0E0
E060
C070
ENDCHAR
STARTCHAR 1EA5
ENCODING 7845
SWIDTH 617 0
DWIDTH 12 0
BBX 12 18 1 0
BITMAP
0070
0060
00E0
0CC0
1E00
3F00
7380
1000
7DC0
FFC0
E3C0
E1C0
C1C0
C1C0
E1C0
E3C0
7FC0
3DC0
ENDCHAR
STARTCHAR 1EA6
ENCODING 7846
SWIDTH 668 0
DWIDTH 13 0
BBX 12 21 1 0
BITMAP
0380
0180
00C0
0EC0
1F00
3B80
0000
0E00
0E00
0F00
1F00
1B00
1B80
3980
3180
71C0
7FC0
7FC0
E0E0
E060
C070
ENDCHAR
STARTCHAR 1EA7
ENCODING 7847
SWIDTH 617 0
DWIDTH 12 0
BBX 10 18 1 0
BITMAP
0700
0380
0180
0DC0
1E00
3F00
7380
1000
7DC0
FFC0
E3C0
E1C0
C1C0
C1C0
E1C0
E3C0
7FC0
3DC0
ENDCHAR
STARTCHAR 1EA8
ENCODING 7848
SWIDTH 668 0
DWIDTH 13 0
BBX 12 22 1 0
BITMAP
0040
01E0
0030
0060
0E00
1F00
3B80
0000
0E00
0E00
0F00
1F00
1B00
1B80
3980
3180
71C0
7FC0
7FC0
E0E0
E060
C070
ENDCHAR
STARTCHAR 1EA9
ENCODING 7849
SWIDTH 617 0
DWIDTH 12 0
BBX 11 18 1 0
BITMAP
01E0
0360
0060
0CC0
1E00
3F00
7380
1000
7DC0
FFC0
E3C0
E1C0
C1C0
C1C0
E1C0
E3C0
7FC0
3DC0
ENDCHAR
STARTCHAR 1EAA
ENCODING 7850
SWIDTH 668 0
DWIDTH 13 0
BBX 12 21 1 0
BITMAP
1F80
3700
0000
0E00
1F00
3B80
0000
0E00
0E00
0F00
1F00
1B00
1B80
3980
3180
71C0
7FC0
7FC0
E0E0
E060
C070
ENDCHAR
STARTCHAR 1EAB
ENCODING 7851
SWIDTH 617 0
DWIDTH 12 0
BBX 10 18 1 0
BITMAP
1900
3F00
2200
0C00
1E00
3F00
7380
1000
7DC0
FFC0
E3C0
E1C0
C1C0
C1C0
E1C0
E3C0
7FC0
3DC0
ENDCHAR
STARTCHAR 1EAC
ENCODING 7852
SWIDTH 668 0
DWIDTH 13 0
BBX 12 23 1 -5
BITMAP
0E00
1F00
3B80
0000
0E00
0E00
0F00
1F00
1B00
1B80
3980
3180
71C0
7FC0
7FC0
E0E0
E060
C070
0000
0000
0E00
0E00
0400
ENDCHAR
STARTCHAR 1EAD
ENCODING 7853
SWIDTH 617 0
DWIDTH 12 0
BBX 10 20 1 -5
BITMAP
0C00
1E00
3F00
7380
1000
7DC0
FFC0
E3C0
E1C0
C1C0
C1C0
E1C0
E3C0
7FC0
3DC0
0000
0000
0C00
0C00
0C00
ENDCHAR
STARTCHAR 1EAE
ENCODING 7854
SWIDTH 668 0
DWIDTH 13 0
BBX 12 22 1 0
BITMAP
0380
0300
0600
0600
0000
3F80
0E00
0000
0E00
0E00
0F00
1F00
1B00
1B80
3980
3180
71C0
7FC0
7FC0
E0E0
E060
C070
ENDCHAR
STARTCHAR 1EAF
ENCODING 7855
SWIDTH 617 0
DWIDTH 12 0
BBX 10 19 1 0
BITMAP
0300
0700
0600
0C00
0000
3300
1E00
0000
1000
7DC0
FFC0
E3C0
E1C0
C1C0
C1C0
E1C0
E3C0
7FC0
3DC0
ENDCHAR
STARTCHAR 1EB0
ENCODING 7856
SWIDTH 668 0
DWIDTH 13 0
BBX 12 22 1 0
BITMAP
3800
1C00
0C00
0E00
0000
1F80
0F00
0000
0E00
0E00
0F00
1F00
1B00
1B80
3980
3180
71C0
7FC0
7FC0
E0E0
E060
C070
ENDCHAR
STARTCHAR 1EB1
ENCODING 7857
SWIDTH 617 0
DWIDTH 12 0
BBX 10 19 1 0
BITMAP
3000
3800
1800
0C00
0000
3300
1E00
0000
1000
7DC0
FFC0
E3C0
E1C0
C1C0
C1C0
E1C0
E3C0
7FC0
3DC0
ENDCHAR
STARTCHAR 1EB2
ENCODING 7858
SWIDTH 668 0
DWIDTH 13 0
BBX 12 22 1 0
BITMAP
0F00
1B00
0300
0600
0000
3F80
0E00
0000
0E00
0E00
0F00
1F00
1B00
1B80
3980
3180
71C0
7FC0
7FC0
E0E0
E060
C070
ENDCHAR
STARTCHAR 1EB3
ENCODING 7859
SWIDTH 617 0
DWIDTH 12 0
BBX 10 19 1 0
BITMAP
1E00
1E00
0200
0E00
0000
3300
1E00
0000
1000
7DC0
FFC0
E3C0
E1C0
C1C0
C1C0
E1C0
E3C0
7FC0
3DC0
ENDCHAR
STARTCHAR 1EB4
ENCODING 7860
SWIDTH 668 0
DWIDTH 13 0
BBX 12 21 1 0
BITMAP
1D80
1F00
0000
0000
3F80
0E00
0000
0E00
0E00
0F00
1F00
1B00
1B80
3980
3180
71C0
7FC0
7FC0
E0E0
E060
C070
ENDCHAR
STARTCHAR 1EB5
ENCODING 7861
SWIDTH 617 0
DWIDTH 12 0
BBX 10 18 1 0
BITMAP
1900
3F00
2600
0000
3300
1E00
0000
1000
7DC0
FFC0
E3C0
E1C0
C1C0
C1C0
E1C0
E3C0
7FC0
3DC0
ENDCHAR
STARTCHAR 1EB6
ENCODING 7862
SWIDTH 668 0
DWIDTH 13 0
BBX 12 22 1 -5
BITMAP
3F80
0E00
0000
0E00
0E00
0F00
1F00
1B00
1B80
3980
3180
71C0
7FC0
7FC0
E0E0
E060
C070
0000
0000
0E00
0E00
0400
ENDCHAR
STARTCHAR 1EB7
ENCODING 7863
SWIDTH 617 0
DWIDTH 12 0
BBX 10 19 1 -5
BITMAP
3300
1E00
0000
1000
7DC0
FFC0
E3C0
E1C0
C1C0
C1C0
E1C0
E3C0
7FC0
3DC0
0000
0000
0C00
0C00
0C00
ENDCHAR
STARTCHAR 1EB8
ENCODING 7864
SWIDTH 565 0
DWIDTH 11 0
BBX 9 19 1 -5
BITMAP
FF80
FF80
FF80
E000
E000
E000
FF00
FF00
E000
E000
E000
E000
FF80
FF80
0000
0000
1C00
1C00
0800
ENDCHAR
STARTCHAR 1EB9
ENCODING 7865
SWIDTH 565 0
DWIDTH 11 0
BBX 9 16 1 -5
BITMAP
0800
3F00
7780
E180
C180
FF80
FF80
C000
E380
7F00
3E00
0000
0000
0C00
1C00
0C00
ENDCHAR
STARTCHAR 1EBA
ENCODING 7866
SWIDTH 565 0
DWIDTH 11 0
BBX 9 19 1 0
BITMAP
1C00
3600
0600
0C00
0000
FF80
FF80
FF80
E000
E000
E000
FF00
FF00
E000
E000
E000
E000
FF80
FF80
ENDCHAR
STARTCHAR 1EBB
ENCODING 7867
SWIDTH 565 0
DWIDTH 11 0
BBX 9 16 1 0
BITMAP
1C00
3E00
0600
0E00
0000
0800
3F00
7780
E180
C180
FF80
FF80
C000
E380
7F00
3E00
ENDCHAR
STARTCHAR 1EBC
ENCODING 7868
SWIDTH 565 0
DWIDTH 11 0
BBX 9 18 1 0
BITMAP
3B00
3F00
6600
0000
FF80
FF80
FF80
E000
E000
E000
FF00
FF00
E000
E000
E000
E000
FF80
FF80
ENDCHAR
STARTCHAR 1EBD
ENCODING 7869
SWIDTH 565 0
DWIDTH 11 0
BBX 9 15 1 0
BITMAP
1300
3F00
2E00
0000
0800
3F00
7780
E180
C180
FF80
FF80
C000
E380
7F00
3E00
ENDCHAR
STARTCHAR 1EBE
ENCODING 7870
SWIDTH 565 0
DWIDTH 11 0
BBX 11 21 1 0
BITMAP
0060
00E0
00C0
1D80
3E00
7700
0000
FF80
FF80
FF80
E000
E000
E000
FF00
FF00
E000
E000
E000
E000
FF80
FF80
ENDCHAR
STARTCHAR 1EBF
ENCODING 7871
SWIDTH 565 0
DWIDTH 11 0
BBX 12 18 1 0
BITMAP
0070
0060
00C0
0CC0
1E00
3700
6380
0800
3F00
7780
E180
C180
FF80
FF80
C000
E380
7F00
3E00
ENDCHAR
STARTCHAR 1EC0
ENCODING 7872
SWIDTH 565 0
DWIDTH 11 0
BBX 9 21 1 0
BITMAP
0700
0300
0180
1D80
3E00
7700
0000
FF80
FF80
FF80
E000
E000
E000
FF00
FF00
E000
E000
E000
E000
FF80
FF80
ENDCHAR
STARTCHAR 1EC1
ENCODING 7873
SWIDTH 565 0
DWIDTH 11 0
BBX 9 18 1 0
BITMAP
0700
0300
0180
0D80
1E00
3700
6380
0800
3F00
7780
E180
C180
FF80
FF80
C000
E380
7F00
3E00
ENDCHAR
STARTCHAR 1EC2
ENCODING 7874
SWIDTH 565 0
DWIDTH 11 0
BBX 11 22 1 0
BITMAP
0080
03C0
0060
00C0
1C00
3E00
7700
0000
FF80
FF80
FF80
E000
E000
E000
FF00
FF00
E000
E000
E000
E000
FF80
FF80
ENDCHAR
STARTCHAR 1EC3
ENCODING 7875
SWIDTH 565 0
DWIDTH 11 0
BBX 11 18 1 0
BITMAP
03C0
0360
0060
0DC0
1E00
3700
6380
0800
3F00
7780
E180
C180
FF80
FF80
C000
E380
7F00
3E00
ENDCHAR
STARTCHAR 1EC4
ENCODING 7876
SWIDTH 565 0
DWIDTH 11 0
BBX 9 21 1 0
BITMAP
3F00
6E00
0000
1C00
3E00
7700
0000
FF80
FF80
FF80
E000
E000
E000
FF00
FF00
E000
E000
E000
E000
FF80
FF80
ENDCHAR
STARTCHAR 1EC5
ENCODING 7877
SWIDTH 565 0
DWIDTH 11 0
BBX 9 18 1 0
BITMAP
3B00
3F00
2600
0C00
1E00
3700
6300
0800
3F00
7780
E180
C180
FF80
FF80
C000
E380
7F00
3E00
ENDCHAR
STARTCHAR 1EC6
ENCODING 7878
SWIDTH 565 0
DWIDTH 11 0
BBX 9 23 1 -5
BITMAP
1C00
3E00
7700
0000
FF80
FF80
FF80
E000
E000
E000
FF00
FF00
E000
E000
E000
E000
FF80
FF80
0000
0000
1C00
1C00
0800
ENDCHAR
STARTCHAR 1EC7
ENCODING 7879
SWIDTH 565 0
DWIDTH 11 0
BBX 9 20 1 -5
BITMAP
0C00
1E00
3700
6380
0800
3F00
7780
E180
C180
FF80
FF80
C000
E380
7F00
3E00
0000
0000
0C00
1C00
0C00
ENDCHAR
STARTCHAR 1EC8
ENCODING 7880
SWIDTH 257 0
DWIDTH 5 0
BBX 5 19 0 0
BITMAP
70
D8
18
30
00
70
70
70
70
70
70
70
70
70
70
70
70
70
70
ENDCHAR
STARTCHAR 1EC9
ENCODING 7881
SWIDTH 257 0
DWIDTH 5 0
BBX 5 16 0 0
BITMAP
70
F8
18
38
00
00
70
70
70
70
70
70
70
70
70
70
ENDCHAR
STARTCHAR 1ECA
ENCODING 7882
SWIDTH 257 0
DWIDTH 5 0
BBX 3 19 1 -5
BITMAP
E0
E0
E0
E0
E0
E0
E0
E0
E0
E0
E0
E0
E0
E0
00
00
E0
E0
40
ENDCHAR
STARTCHAR 1ECB
ENCODING 7883
SWIDTH 257 0
DWIDTH 5 0
BBX 3 20 1 -5
BITMAP
60
E0
60
00
00
E0
E0
E0
E0
E0
E0
E0
E0
E0
E0
00
00
60
E0
60
ENDCHAR
STARTCHAR 1ECC
ENCODING 7884
SWIDTH 720 0
DWIDTH 14 0
BBX 12 19 1 -5
BITMAP
0F00
3FC0
7FE0
70E0
E070
E070
E070
E070
E070
E070
F0F0
79E0
3FC0
1F80
0000
0000
0600
0600
0600
ENDCHAR
STARTCHAR 1ECD
ENCODING 7885
SWIDTH 565 0
DWIDTH 11 0
BBX 10 15 1 -4
BITMAP
3F00
7F80
E380
E180
C1C0
C1C0
E180
E380
7F00
3E00
0000
0000
0C00
1C00
0C00
ENDCHAR
STARTCHAR 1ECE
ENCODING 7886
SWIDTH 720 0
DWIDTH 14 0
BBX 12 19 1 0
BITMAP
0F00
0D00
0100
0600
0000
0F00
3FC0
7FE0
70E0
E070
E070
E070
E070
E070
E070
F0F0
79E0
3FC0
1F80
ENDCHAR
STARTCHAR 1ECF
ENCODING 7887
SWIDTH 565 0
DWIDTH 11 0
BBX 10 16 1 0
BITMAP
1C00
3E00
0600
0E00
0000
0000
3F00
7F80
E380
E180
C1C0
C1C0
E180
E380
7F00
3E00
ENDCHAR
STARTCHAR 1ED0
ENCODING 7888
SWIDTH 720 0
DWIDTH 14 0
BBX 13 21 1 0
BITMAP
0038
0030
0060
0660
0F00
1980
0000
0F00
3FC0
7FE0
70E0
E070
E070
E070
E070
E070
E070
F0F0
79E0
3FC0
1F80
ENDCHAR
STARTCHAR 1ED1
ENCODING 7889
SWIDTH 565 0
DWIDTH 11 0
BBX 12 18 1 0
BITMAP
0070
0060
00C0
0DC0
1E00
3700
6300
0000
3F00
7F80
E380
E180
C1C0
C1C0
E180
E380
7F00
3E00
ENDCHAR
STARTCHAR 1ED2
ENCODING 7890
SWIDTH 720 0
DWIDTH 14 0
BBX 12 21 1 0
BITMAP
0180
01C0
00C0
0660
0F00
1980
0000
0F00
3FC0
7FE0
70E0
E070
E070
E070
E070
E070
E070
F0F0
79E0
3FC0
1F80
ENDCHAR
STARTCHAR 1ED3
ENCODING 7891
SWIDTH 565 0
DWIDTH 11 0
BBX 10 18 1 0
BITMAP
0700
0300
0180
0D80
1E00
3700
6380
0000
3F00
7F80
E380
E180
C1C0
C1C0
E180
E380
7F00
3E00
ENDCHAR
STARTCHAR 1ED4
ENCODING 7892
SWIDTH 720 0
DWIDTH 14 0
BBX 12 22 1 0
BITMAP
0040
01F0
0030
0030
0640
0F00
1980
0000
0F00
3FC0
7FE0
70E0
E070
E070
E070
E070
E070
E070
F0F0
79E0
3FC0
1F80
ENDCHAR
STARTCHAR 1ED5
ENCODING 7893
SWIDTH 565 0
DWIDTH 11 0
BBX 11 18 1 0
BITMAP
03C0
0360
0060
0DC0
1E00
3700
6380
0000
3F00
7F80
E380
E180
C1C0
C1C0
E180
E380
7F00
3E00
ENDCHAR
STARTCHAR 1ED6
ENCODING 7894
SWIDTH 720 0
DWIDTH 14 0
BBX 12 21 1 0
BITMAP
1F80
1F80
0000
0600
0F00
1980
0000
0F00
3FC0
7FE0
70E0
E070
E070
E070
E070
E070
E070
F0F0
79E0
3FC0
1F80
ENDCHAR
STARTCHAR 1ED7
ENCODING 7895
SWIDTH 565 0
DWIDTH 11 0
BBX 10 18 1 0
BITMAP
3B00
3F00
2600
0C00
1E00
3700
6300
0000
3F00
7F80
E380
E180
C1C0
C1C0
E180
E380
7F00
3E00
ENDCHAR
STARTCHAR 1ED8
ENCODING 7896
SWIDTH 720 0
DWIDTH 14 0
BBX 12 23 1 -5
BITMAP
0600
0F00
1980
0000
0F00
3FC0
7FE0
70E0
E070
E070
E070
E070
E070
E070
F0F0
79E0
3FC0
1F80
0000
0000
0600
0600
0600
ENDCHAR
STARTCHAR 1ED9
ENCODING 7897
SWIDTH 565 0
DWIDTH 11 0
BBX 10 20 1 -5
BITMAP
0C00
1E00
3700
6380
0000
3F00
7F80
E380
E180
C1C0
C1C0
E180
E380
7F00
3E00
0000
0000
0C00
1C00
0C00
ENDCHAR
STARTCHAR 1EDA
ENCODING 7898
SWIDTH 720 0
DWIDTH 14 0
BBX 12 19 1 0
BITMAP
0180
0380
0300
0630
0030
0FF0
3FC0
7FE0
70E0
E070
E070
E070
E070
E070
E070
F0F0
79E0
3FC0
1F80
ENDCHAR
STARTCHAR 1EDB
ENCODING 7899
SWIDTH 565 0
DWIDTH 11 0
BBX 10 16 1 0
BITMAP
0300
0700
0600
0C00
00C0
00C0
3F80
7F80
E380
E180
C1C0
C1C0
E180
E380
7F00
3E00
ENDCHAR
STARTCHAR 1EDC
ENCODING 7900
SWIDTH 720 0
DWIDTH 14 0
BBX 12 19 1 0
BITMAP
1800
1C00
0C00
0630
0030
0FF0
3FC0
7FE0
70E0
E070
E070
E070
E070
E070
E070
F0F0
79E0
3FC0
1F80
ENDCHAR
STARTCHAR 1EDD
ENCODING 7901
SWIDTH 565 0
DWIDTH 11 0
BBX 10 16 1 0
BITMAP
7000
3000
3800
1800
00C0
00C0
3F80
7F80
E380
E180
C1C0
C1C0
E180
E380
7F00
3E00
ENDCHAR
STARTCHAR 1EDE
ENCODING 7902
SWIDTH 720 0
DWIDTH 14 0
BBX 12 19 1 0
BITMAP
0F00
0D00
0100
0630
0030
0FF0
3FC0
7FE0
70E0
E070
E070
E070
E070
E070
E070
F0F0
79E0
3FC0
1F80
ENDCHAR
STARTCHAR 1EDF
ENCODING 7903
SWIDTH 565 0
DWIDTH 11 0
BBX 10 16 1 0
BITMAP
1C00
3E00
0600
0E00
00C0
00C0
3F80
7F80
E380
E180
C1C0
C1C0
E180
E380
7F00
3E00
ENDCHAR
STARTCHAR 1EE0
ENCODING 7904
SWIDTH 720 0
DWIDTH 14 0
BBX 12 18 1 0
BITMAP
0C80
1F80
1330
0030
0FF0
3FC0
7FE0
70E0
E070
E070
E070
E070
E070
E070
F0F0
79E0
3FC0
1F80
ENDCHAR
STARTCHAR 1EE1
ENCODING 7905
SWIDTH 565 0
DWIDTH 11 0
BBX 10 15 1 0
BITMAP
1300
3F00
2E00
00C0
00C0
3F80
7F80
E380
E180
C1C0
C1C0
E180
E380
7F00
3E00
ENDCHAR
STARTCHAR 1EE2
ENCODING 7906
SWIDTH 720 0
DWIDTH 14 0
BBX 12 21 1 -5
BITMAP
0030
0030
0FF0
3FC0
7FE0
70E0
E070
E070
E070
E070
E070
E070
F0F0
79E0
3FC0
1F80
0000
0000
0600
0600
0600
ENDCHAR
STARTCHAR 1EE3
ENCODING 7907
SWIDTH 565 0
DWIDTH 11 0
BBX 10 17 1 -5
BITMAP
00C0
00C0
3F80
7F80
E380
E180
C1C0
C1C0
E180
E380
7F00
3E00
0000
0000
0C00
1C00
0C00
ENDCHAR
STARTCHAR 1EE4
ENCODING 7908
SWIDTH 668 0
DWIDTH 13 0
BBX 11 19 1 -5
BITMAP
E060
E060
E060
E060
E060
E060
E060
E060
E060
E0E0
E0E0
79E0
7FC0
1F80
0000
0000
0600
0E00
0600
ENDCHAR
STARTCHAR 1EE5
ENCODING 7909
SWIDTH 565 0
DWIDTH 11 0
BBX 9 15 1 -5
BITMAP
E180
E180
E180
E180
E180
E180
E180
E380
7F80
7D80
0000
0000
1C00
1C00
0800
ENDCHAR
STARTCHAR 1EE6
ENCODING 7910
SWIDTH 668 0
DWIDTH 13 0
BBX 11 19 1 0
BITMAP
0E00
1B00
0300
0600
0000
E060
E060
E060
E060
E060
E060
E060
E060
E060
E0E0
E0E0
79E0
7FC0
1F80
ENDCHAR
STARTCHAR 1EE7
ENCODING 7911
SWIDTH 565 0
DWIDTH 11 0
BBX 9 16 1 0
BITMAP
1C00
3E00
0600
0C00
0000
0000
E180
E180
E180
E180
E180
E180
E180
E380
7F80
7D80
ENDCHAR
STARTCHAR 1EE8
ENCODING 7912
SWIDTH 668 0
DWIDTH 13 0
BBX 13 19 1 0
BITMAP
0380
0300
0700
0608
0008
E078
E070
E060
E060
E060
E060
E060
E060
E060
E0E0
E0E0
79E0
7FC0
1F80
ENDCHAR
STARTCHAR 1EE9
ENCODING 7913
SWIDTH 565 0
DWIDTH 11 0
BBX 12 16 1 0
BITMAP
0300
0700
0E00
0C00
0030
0030
E1E0
E180
E180
E180
E180
E180
E180
E380
7F80
7D80
ENDCHAR
STARTCHAR 1EEA
ENCODING 7914
SWIDTH 668 0
DWIDTH 13 0
BBX 13 19 1 0
BITMAP
3800
1800
0C00
0C08
0008
E078
E070
E060
E060
E060
E060
E060
E060
E060
E0E0
E0E0
79E0
7FC0
1F80
ENDCHAR
STARTCHAR 1EEB
ENCODING 7915
SWIDTH 565 0
DWIDTH 11 0
BBX 12 16 1 0
BITMAP
7000
3000
3800
1800
0030
0030
E1E0
E180
E180
E180
E180
E180
E180
E380
7F80
7D80
ENDCHAR
STARTCHAR 1EEC
ENCODING 7916
SWIDTH 668 0
DWIDTH 13 0
BBX 13 19 1 0
BITMAP
0E00
1B00
0300
0608
0008
E078
E070
E060
E060
E060
E060
E060
E060
E060
E0E0
E0E0
79E0
7FC0
1F80
ENDCHAR
STARTCHAR 1EED
ENCODING 7917
SWIDTH 565 0
DWIDTH 11 0
BBX 12 16 1 0
BITMAP
1C00
3E00
0600
0C00
0030
0030
E1E0
E180
E180
E180
E180
E180
E180
E380
7F80
7D80
ENDCHAR
STARTCHAR 1EEE
ENCODING 7918
SWIDTH 668 0
DWIDTH 13 0
BBX 13 18 1 0
BITMAP
1D80
1F80
1308
0008
E078
E070
E060
E060
E060
E060
E060
E060
E060
E0E0
E0E0
79E0
7FC0
1F80
ENDCHAR
STARTCHAR 1EEF
ENCODING 7919
SWIDTH 565 0
DWIDTH 11 0
BBX 12 15 1 0
BITMAP
0100
3F00
2600
0030
0030
E1E0
E180
E180
E180
E180
E180
E180
E380
7F80
7D80
ENDCHAR
STARTCHAR 1EF0
ENCODING 7920
SWIDTH 668 0
DWIDTH 13 0
BBX 13 21 1 -5
BITMAP
0008
0008
E078
E070
E060
E060
E060
E060
E060
E060
E060
E0E0
E0E0
79E0
7FC0
1F80
0000
0000
0600
0E00
0600
ENDCHAR
STARTCHAR 1EF1
ENCODING 7921
SWIDTH 565 0
DWIDTH 11 0
BBX 12 17 1 -5
BITMAP
0030
0030
E1E0
E180
E180
E180
E180
E180
E180
E380
7F80
7D80
0000
0000
1C00
1C00
0800
ENDCHAR
STARTCHAR 1EF2
ENCODING 7922
SWIDTH 617 0
DWIDTH 12 0
BBX 11 19 1 0
BITMAP
3800
1800
1C00
0C00
0000
C0E0
E0E0
61C0
71C0
3380
3B80
1F00
1F00
0E00
0E00
0E00
0E00
0E00
0E00
ENDCHAR
STARTCHAR 1EF3
ENCODING 7923
SWIDTH 514 0
DWIDTH 10 0
BBX 9 20 1 -4
BITMAP
7000
7000
3800
1800
0000
0000
C180
E380
E300
6300
7700
3600
3600
3E00
1C00
1C00
1800
3800
F800
F000
ENDCHAR
STARTCHAR 1EF4
ENCODING 7924
SWIDTH 617 0
DWIDTH 12 0
BBX 11 19 1 -5
BITMAP
C0E0
E0E0
61C0
71C0
3380
3B80
1F00
1F00
0E00
0E00
0E00
0E00
0E00
0E00
0000
0000
0C00
0E00
0C00
ENDCHAR
STARTCHAR 1EF5
ENCODING 7925
SWIDTH 514 0
DWIDTH 10 0
BBX 9 15 1 -5
BITMAP
C180
E380
E300
6300
7700
3600
3600
3E00
1C00
1C00
1800
3800
F980
F380
0180
ENDCHAR
STARTCHAR 1EF6
ENCODING 7926
SWIDTH 617 0
DWIDTH 12 0
BBX 11 19 1 0
BITMAP
1E00
1B00
0300
0600
0000
C0E0
E0E0
61C0
71C0
3380
3B80
1F00
1F00
0E00
0E00
0E00
0E00
0E00
0E00
ENDCHAR
STARTCHAR 1EF7
ENCODING 7927
SWIDTH 514 0
DWIDTH 10 0
BBX 9 20 1 -4
BITMAP
1C00
3E00
0600
0C00
0000
0000
C180
E380
E300
6300
7700
3600
3600
3E00
1C00
1C00
1800
3800
F800
F000
ENDCHAR
STARTCHAR 1EF8
ENCODING 7928
SWIDTH 617 0
DWIDTH 12 0
BBX 11 18 1 0
BITMAP
1900
3F00
3200
0000
C0E0
E0E0
61C0
71C0
3380
3B80
1F00
1F00
0E00
0E00
0E00
0E00
0E00
0E00
ENDCHAR
STARTCHAR 1EF9
ENCODING 7929
SWIDTH 514 0
DWIDTH 10 0
BBX 9 19 1 -4
BITMAP
0200
3E00
6E00
0000
0000
C180
E380
E300
6300
7700
3600
3600
3E00
1C00
1C00
1800
3800
F800
F000
ENDCHAR
STARTCHAR 2013
ENCODING 8211
SWIDTH 617 0
DWIDTH 12 0
BBX 9 2 2 5
BITMAP
FF80
FF80
ENDCHAR
STARTCHAR 2014
ENCODING 8212
SWIDTH 720 0
DWIDTH 14 0
BBX 11 2 2 5
BITMAP
FFE0
FFE0
ENDCHAR
STARTCHAR 2018
ENCODING 8216
SWIDTH 257 0
DWIDTH 5 0
BBX 3 6 1 9
BITMAP
60
80
80
E0
E0
40
ENDCHAR
STARTCHAR 2019
ENCODING 8217
SWIDTH 257 0
DWIDTH 5 0
BBX 4 6 1 9
BITMAP
60
F0
70
30
20
40
ENDCHAR
STARTCHAR 201A
ENCODING 8218
SWIDTH 257 0
DWIDTH 5 0
BBX 4 6 1 -4
BITMAP
60
F0
F0
30
30
20
ENDCHAR
STARTCHAR 201C
ENCODING 8220
SWIDTH 514 0
DWIDTH 10 0
BBX 8 6 1 9
BITMAP
62
84
84
E7
E7
42
ENDCHAR
STARTCHAR 201D
ENCODING 8221
SWIDTH 514 0
DWIDTH 10 0
BBX 8 5 1 9
BITMAP
67
F7
31
21
23
ENDCHAR
STARTCHAR 201E
ENCODING 8222
SWIDTH 514 0
DWIDTH 10 0
BBX 8 5 1 -3
BITMAP
E7
F7
31
21
63
ENDCHAR
STARTCHAR 2020
ENCODING 8224
SWIDTH 565 0
DWIDTH 11 0
BBX 8 19 2 -5
BITMAP
18
18
18
18
FF
FF
18
18
18
18
18
18
18
18
18
18
18
18
18
ENDCHAR
STARTCHAR 2021
ENCODING 8225
SWIDTH 565 0
DWIDTH 11 0
BBX 8 19 2 -5
BITMAP
18
18
18
18
FF
FF
18
18
18
18
18
18
18
FF
FF
18
18
18
18
ENDCHAR
STARTCHAR 2022
ENCODING 8226
SWIDTH 462 0
DWIDTH 9 0
BBX 5 4 1 5
BITMAP
70
F8
F8
70
ENDCHAR
STARTCHAR 2026
ENCODING 8230
SWIDTH 874 0
DWIDTH 17 0
BBX 13 3 2 0
BITMAP
C618
E738
E738
ENDCHAR
STARTCHAR 2030
ENCODING 8240
SWIDTH 1131 0
DWIDTH 22 0
BBX 21 14 1 0
BITMAP
706000
F86000
D8C000
D8C000
F98000
718000
030000
070000
060000
0E78F0
0C6D90
1C4D98
186CD0
3878F0
ENDCHAR
STARTCHAR 2039
ENCODING 8249
SWIDTH 360 0
DWIDTH 7 0
BBX 6 8 1 2
BITMAP
1C
38
70
E0
E0
70
38
1C
ENDCHAR
STARTCHAR 203A
ENCODING 8250
SWIDTH 360 0
DWIDTH 7 0
BBX 6 8 1 2
BITMAP
E0
70
38
1C
1C
38
70
E0
ENDCHAR
STARTCHAR 2044
ENCODING 8260
SWIDTH 462 0
DWIDTH 9 0
BBX 10 14 0 0
BITMAP
00C0
0180
0380
0300
0700
0600
0C00
1C00
1800
3800
3000
6000
E000
C000
ENDCHAR
STARTCHAR 2070
ENCODING 8304
SWIDTH 308 0
DWIDTH 6 0
BBX 6 8 0 7
BITMAP
38
6C
4C
CC
CC
6C
7C
30
ENDCHAR
STARTCHAR 2074
ENCODING 8308
SWIDTH 308 0
DWIDTH 6 0
BBX 6 7 0 8
BITMAP
18
38
28
48
FC
FC
08
ENDCHAR
STARTCHAR 2075
ENCODING 8309
SWIDTH 308 0
DWIDTH 6 0
BBX 6 7 0 7
BITMAP
78
78
40
78
0C
CC
78
ENDCHAR
STARTCHAR 2076
ENCODING 8310
SWIDTH 308 0
DWIDTH 6 0
BBX 6 7 0 7
BITMAP
30
20
60
78
CC
CC
78
ENDCHAR
STARTCHAR 2077
ENCODING 8311
SWIDTH 257 0
DWIDTH 5 0
BBX 5 7 0 8
BITMAP
F8
F8
08
18
10
30
20
ENDCHAR
STARTCHAR 2078
ENCODING 8312
SWIDTH 308 0
DWIDTH 6 0
BBX 6 8 0 7
BITMAP
38
6C
4C
78
4C
CC
7C
30
ENDCHAR
STARTCHAR 2079
ENCODING 8313
SWIDTH 308 0
DWIDTH 6 0
BBX 5 8 1 7
BITMAP
70
D8
98
98
F0
30
20
60
ENDCHAR
STARTCHAR 2080
ENCODING 8320
SWIDTH 308 0
DWIDTH 6 0
BBX 6 8 0 -5
BITMAP
10
7C
6C
CC
CC
4C
6C
38
ENDCHAR
STARTCHAR 2081
ENCODING 8321
SWIDTH 257 0
DWIDTH 5 0
BBX 5 7 0 -5
BITMAP
70
F0
B0
30
30
30
F8
ENDCHAR
STARTCHAR 2082
ENCODING 8322
SWIDTH 257 0
DWIDTH 5 0
BBX 6 7 0 -5
BITMAP
78
48
08
18
30
E0
FC
ENDCHAR
STARTCHAR 2083
ENCODING 8323
SWIDTH 308 0
DWIDTH 6 0
BBX 5 8 1 -5
BITMAP
60
F8
98
38
30
18
F8
F0
ENDCHAR
STARTCHAR 2084
ENCODING 8324
SWIDTH 308 0
DWIDTH 6 0
BBX 6 7 0 -5
BITMAP
18
28
68
48
FC
08
08
ENDCHAR
STARTCHAR 2085
ENCODING 8325
SWIDTH 308 0
DWIDTH 6 0
BBX 5 7 1 -5
BITMAP
F0
80
F0
98
18
F8
70
ENDCHAR
STARTCHAR 2086
ENCODING 8326
SWIDTH 308 0
DWIDTH 6 0
BBX 6 7 0 -5
BITMAP
30
20
78
4C
CC
4C
78
ENDCHAR
STARTCHAR 2087
ENCODING 8327
SWIDTH 257 0
DWIDTH 5 0
BBX 5 7 0 -5
BITMAP
F8
08
18
10
30
30
60
ENDCHAR
STARTCHAR 2088
ENCODING 8328
SWIDTH 308 0
DWIDTH 6 0
BBX 6 8 0 -5
BITMAP
30
78
4C
68
78
CC
6C
78
ENDCHAR
STARTCHAR 2089
ENCODING 8329
SWIDTH 308 0
DWIDTH 6 0
BBX 5 7 1 -5
BITMAP
F0
98
98
F8
10
20
60
ENDCHAR
STARTCHAR 20AB
ENCODING 8363
SWIDTH 565 0
DWIDTH 11 0
BBX 10 16 1 0
BITMAP
0380
07C0
07C0
1380
7F80
FF80
E380
C380
C180
E380
E780
7F80
3B80
0000
7F80
7F80
ENDCHAR
STARTCHAR 20AC
ENCODING 8364
SWIDTH 668 0
DWIDTH 13 0
BBX 12 13 0 0
BITMAP
0FC0
1FE0
3C70
3830
FF00
FF00
3000
FF00
3800
3830
1C70
1FE0
07C0
ENDCHAR
STARTCHAR 2122
ENCODING 8482
SWIDTH 360 0
DWIDTH 7 0
BBX 7 4 0 10
BITMAP
FA
5E
56
52
ENDCHAR
STARTCHAR 215B
ENCODING 8539
SWIDTH 874 0
DWIDTH 17 0
BBX 16 14 1 0
BITMAP
6018
E038
E030
6070
6060
60C0
F1C0
018E
039F
031B
060E
0E1B
0C1B
1C0F
ENDCHAR
STARTCHAR 215C
ENCODING 8540
SWIDTH 874 0
DWIDTH 17 0
BBX 16 14 1 0
BITMAP
7018
F830
1870
3060
18E0
D8C0
F980
039E
031E
0713
061E
0C13
1C13
181E
ENDCHAR
STARTCHAR 215D
ENCODING 8541
SWIDTH 874 0
DWIDTH 17 0
BBX 16 14 1 0
BITMAP
F018
F038
8030
F060
18E0
D8C0
F1C0
018E
031F
071B
060E
0E1B
0C1B
181F
ENDCHAR
STARTCHAR 215E
ENCODING 8542
SWIDTH 874 0
DWIDTH 17 0
BBX 16 14 1 0
BITMAP
F818
F830
1070
3060
30E0
60C0
6180
038E
031F
071B
060E
0C1B
1C1B
181F
ENDCHAR
STARTCHAR 2212
ENCODING 8722
SWIDTH 565 0
DWIDTH 11 0
BBX 8 2 2 5
BITMAP
FF
FF
ENDCHAR
STARTCHAR 2215
ENCODING 8725
SWIDTH 514 0
DWIDTH 10 0
BBX 9 14 1 0
BITMAP
0380
0300
0700
0600
0E00
0C00
1C00
1800
3800
3000
7000
6000
E000
C000
ENDCHAR
STARTCHAR 2248
ENCODING 8776
SWIDTH 565 0
DWIDTH 11 0
BBX 7 7 2 2
BITMAP
FE
DE
00
00
72
FE
8C
ENDCHAR
STARTCHAR 2260
ENCODING 8800
SWIDTH 720 0
DWIDTH 14 0
BBX 9 12 3 0
BITMAP
0380
0300
0600
FF80
FF80
1C00
1800
FF80
FF80
6000
E000
C000
ENDCHAR
STARTCHAR 2264
ENCODING 8804
SWIDTH 565 0
DWIDTH 11 0
BBX 9 13 2 0
BITMAP
0100
0700
1F00
7C00
6000
7800
3E00
0F00
0300
0000
0000
FF80
FF80
ENDCHAR
STARTCHAR 2265
ENCODING 8805
SWIDTH 617 0
DWIDTH 12 0
BBX 9 13 2 0
BITMAP
4000
7000
7800
1E00
0700
0F00
3C00
7000
4000
0000
0000
FF80
FF80
ENDCHAR
ENDFONT
